<svg xmlns="http://www.w3.org/2000/svg" id="canvas" viewBox="288.140 424.980 1121.941 73.279"><path d="M 304.15,455.95 C 303.36 456.20, 302.98 456.74, 302.11 457.89 C 301.25 459.04, 300.76 459.85, 299.84 461.72 C 298.92 463.58, 298.42 464.94, 297.51 467.22 C 296.60 469.51, 296.13 470.83, 295.26 473.15 C 294.39 475.46, 293.87 476.71, 293.15 478.79 C 292.44 480.87, 292.08 481.91, 291.68 483.54 C 291.27 485.16, 291.14 485.86, 291.14 486.92 C 291.14 487.97, 291.42 488.33, 291.67 488.82 C 291.92 489.32, 292.13 489.30, 292.39 489.40 C 292.66 489.51, 292.74 489.41, 292.99 489.35 C 293.24 489.28, 293.29 489.38, 293.64 489.08 C 294.00 488.78, 294.29 488.65, 294.77 487.84 C 295.24 487.02, 295.38 486.43, 296.01 484.99 C 296.63 483.56, 297.01 482.60, 297.88 480.67 C 298.76 478.73, 299.32 477.53, 300.37 475.31 C 301.42 473.09, 302.12 471.85, 303.11 469.57 C 304.11 467.29, 304.72 465.94, 305.35 463.93 C 305.99 461.91, 306.16 460.94, 306.29 459.48 C 306.42 458.02, 306.45 457.34, 306.02 456.64 C 305.59 455.93, 304.93 455.70, 304.15 455.95" style="stroke: black; fill: black;"/><path d="M 312.96,429.47 C 313.32 428.70, 313.54 428.00, 313.28 427.98 C 313.02 427.97, 312.09 428.89, 311.66 429.40 C 311.23 429.92, 311.01 430.39, 311.11 430.56 C 311.21 430.73, 312.08 430.12, 312.16 430.25 C 312.25 430.37, 311.88 430.64, 311.54 431.16 C 311.19 431.69, 310.45 432.72, 310.44 432.85 C 310.43 432.98, 310.98 432.50, 311.48 431.82 C 311.99 431.14, 312.60 430.23, 312.96 429.47" style="stroke: black; fill: black;"/><path d="M 324.88,456.89 C 324.17 456.99, 323.89 457.29, 323.13 458.07 C 322.37 458.85, 321.92 459.39, 321.09 460.80 C 320.27 462.21, 319.86 463.26, 319.00 465.13 C 318.15 466.99, 317.70 468.15, 316.82 470.13 C 315.93 472.11, 315.37 473.22, 314.56 475.01 C 313.76 476.80, 313.16 477.67, 312.77 479.08 C 312.38 480.50, 312.30 481.21, 312.62 482.09 C 312.94 482.96, 313.47 483.37, 314.38 483.46 C 315.28 483.55, 315.99 483.40, 317.15 482.54 C 318.31 481.68, 318.88 480.83, 320.19 479.15 C 321.50 477.48, 322.08 476.22, 323.68 474.17 C 325.27 472.13, 326.25 470.91, 328.15 468.93 C 330.06 466.95, 331.24 465.92, 333.20 464.27 C 335.17 462.62, 336.24 461.85, 337.97 460.70 C 339.70 459.54, 340.60 459.12, 341.86 458.51 C 343.11 457.90, 343.60 457.73, 344.24 457.65 C 344.87 457.57, 344.92 457.64, 345.01 458.12 C 345.10 458.59, 344.95 458.95, 344.69 460.02 C 344.44 461.09, 344.22 461.84, 343.73 463.47 C 343.24 465.10, 342.93 466.19, 342.25 468.17 C 341.57 470.14, 341.08 471.32, 340.33 473.34 C 339.57 475.37, 339.08 476.46, 338.47 478.27 C 337.85 480.09, 337.51 480.99, 337.25 482.42 C 336.99 483.85, 337.00 484.48, 337.15 485.43 C 337.29 486.38, 337.60 486.73, 337.97 487.17 C 338.35 487.61, 338.67 487.68, 339.02 487.63 C 339.36 487.59, 339.51 487.17, 339.69 486.96 C 339.88 486.76, 339.76 486.86, 339.94 486.62 C 340.12 486.38, 340.31 486.37, 340.61 485.79 C 340.91 485.20, 340.93 484.81, 341.45 483.70 C 341.96 482.58, 342.37 481.84, 343.17 480.20 C 343.97 478.56, 344.54 477.49, 345.46 475.47 C 346.38 473.46, 346.98 472.27, 347.76 470.12 C 348.54 467.98, 349.01 466.80, 349.36 464.76 C 349.71 462.72, 349.81 461.63, 349.50 459.93 C 349.20 458.23, 348.80 457.36, 347.83 456.24 C 346.86 455.12, 346.13 454.68, 344.66 454.34 C 343.19 453.99, 342.32 454.06, 340.49 454.50 C 338.66 454.95, 337.61 455.42, 335.51 456.55 C 333.40 457.69, 332.19 458.48, 329.95 460.16 C 327.70 461.85, 326.48 462.97, 324.30 464.98 C 322.11 467.00, 320.92 468.17, 319.03 470.23 C 317.14 472.30, 316.10 473.43, 314.85 475.31 C 313.60 477.19, 313.12 478.21, 312.77 479.63 C 312.42 481.05, 312.65 481.73, 313.08 482.42 C 313.51 483.11, 314.12 483.30, 314.91 483.06 C 315.71 482.83, 316.18 482.35, 317.06 481.23 C 317.94 480.10, 318.33 479.15, 319.31 477.45 C 320.30 475.74, 320.93 474.64, 321.98 472.70 C 323.04 470.75, 323.69 469.64, 324.60 467.74 C 325.50 465.84, 325.99 464.79, 326.50 463.19 C 327.01 461.59, 327.10 460.86, 327.14 459.74 C 327.17 458.62, 327.12 458.15, 326.67 457.59 C 326.22 457.02, 325.59 456.80, 324.88 456.89" style="stroke: black; fill: black;"/><path d="M 380.51,432.16 C 379.82 432.36, 379.59 432.71, 378.86 433.68 C 378.12 434.64, 377.70 435.26, 376.83 437.00 C 375.97 438.73, 375.51 439.95, 374.54 442.36 C 373.56 444.76, 373.11 446.26, 371.96 449.02 C 370.80 451.77, 370.09 453.32, 368.78 456.14 C 367.46 458.96, 366.63 460.44, 365.38 463.11 C 364.13 465.78, 363.50 467.14, 362.53 469.49 C 361.56 471.84, 361.14 472.99, 360.55 474.88 C 359.95 476.77, 359.78 477.65, 359.55 478.95 C 359.33 480.24, 359.31 480.63, 359.42 481.35 C 359.53 482.08, 359.82 482.29, 360.09 482.57 C 360.36 482.85, 360.59 482.76, 360.76 482.77 C 360.93 482.78, 360.80 482.64, 360.94 482.62 C 361.09 482.60, 361.19 482.79, 361.48 482.66 C 361.78 482.54, 362.05 482.51, 362.42 481.99 C 362.79 481.47, 362.87 481.16, 363.35 480.05 C 363.82 478.94, 364.07 478.16, 364.79 476.43 C 365.52 474.70, 365.98 473.65, 366.99 471.41 C 368.00 469.16, 368.61 467.84, 369.85 465.21 C 371.09 462.58, 371.79 461.05, 373.18 458.26 C 374.57 455.47, 375.40 453.97, 376.79 451.27 C 378.18 448.57, 379.04 447.18, 380.13 444.75 C 381.22 442.31, 381.71 441.03, 382.26 439.09 C 382.81 437.14, 382.88 436.30, 382.89 435.02 C 382.91 433.74, 382.80 433.24, 382.33 432.67 C 381.85 432.10, 381.20 431.96, 380.51 432.16" style="stroke: black; fill: black;"/><path d="M 360.07,462.51 C 360.40 463.13, 360.76 463.35, 361.70 463.72 C 362.65 464.08, 363.30 464.22, 364.79 464.33 C 366.29 464.45, 367.27 464.38, 369.18 464.29 C 371.09 464.21, 372.23 464.08, 374.34 463.93 C 376.45 463.78, 377.60 463.67, 379.72 463.54 C 381.85 463.41, 382.95 463.39, 384.96 463.29 C 386.97 463.19, 388.09 463.21, 389.77 463.03 C 391.45 462.85, 392.20 462.71, 393.36 462.39 C 394.53 462.06, 395.14 461.90, 395.59 461.40 C 396.05 460.89, 396.08 460.38, 395.64 459.84 C 395.20 459.31, 394.59 459.07, 393.40 458.72 C 392.21 458.37, 391.40 458.20, 389.68 458.08 C 387.96 457.96, 386.82 458.08, 384.78 458.12 C 382.75 458.15, 381.65 458.23, 379.52 458.27 C 377.39 458.30, 376.26 458.31, 374.16 458.30 C 372.05 458.29, 370.92 458.18, 369.01 458.21 C 367.09 458.24, 366.06 458.20, 364.56 458.43 C 363.07 458.67, 362.43 458.94, 361.53 459.38 C 360.62 459.82, 360.33 460.00, 360.04 460.63 C 359.75 461.25, 359.74 461.89, 360.07 462.51" style="stroke: black; fill: black;"/><path d="M 398.45,471.69 C 398.95 472.20, 399.39 472.32, 400.42 472.41 C 401.46 472.50, 402.16 472.49, 403.63 472.15 C 405.09 471.80, 406.06 471.43, 407.75 470.69 C 409.45 469.95, 410.43 469.40, 412.12 468.45 C 413.80 467.50, 414.71 466.95, 416.17 465.94 C 417.63 464.92, 418.34 464.45, 419.40 463.38 C 420.46 462.31, 420.98 461.77, 421.46 460.60 C 421.94 459.43, 422.06 458.69, 421.80 457.52 C 421.53 456.34, 421.17 455.59, 420.15 454.71 C 419.12 453.84, 418.33 453.42, 416.68 453.14 C 415.02 452.87, 413.94 452.93, 411.87 453.33 C 409.80 453.73, 408.60 454.15, 406.33 455.14 C 404.06 456.14, 402.77 456.85, 400.54 458.31 C 398.30 459.77, 397.09 460.70, 395.15 462.46 C 393.22 464.23, 392.27 465.25, 390.87 467.14 C 389.47 469.04, 388.86 470.04, 388.17 471.94 C 387.48 473.83, 387.29 474.84, 387.42 476.61 C 387.54 478.39, 387.85 479.33, 388.79 480.81 C 389.74 482.29, 390.49 483.00, 392.14 484.03 C 393.79 485.06, 394.87 485.46, 397.06 485.97 C 399.24 486.49, 400.55 486.56, 403.05 486.59 C 405.56 486.63, 406.98 486.48, 409.60 486.13 C 412.22 485.78, 413.64 485.49, 416.17 484.84 C 418.71 484.20, 420.01 483.77, 422.28 482.89 C 424.55 482.02, 425.64 481.50, 427.52 480.48 C 429.39 479.45, 430.22 478.88, 431.65 477.75 C 433.07 476.61, 433.64 475.99, 434.63 474.82 C 435.61 473.64, 436.07 473.07, 436.59 471.88 C 437.10 470.69, 437.29 469.86, 437.19 468.88 C 437.09 467.89, 436.64 467.33, 436.10 466.98 C 435.55 466.62, 434.97 466.84, 434.47 467.09 C 433.97 467.35, 433.96 467.68, 433.59 468.25 C 433.22 468.81, 433.07 469.16, 432.62 469.92 C 432.17 470.67, 432.08 471.17, 431.34 472.02 C 430.60 472.87, 430.14 473.32, 428.94 474.17 C 427.75 475.02, 427.02 475.47, 425.35 476.27 C 423.67 477.07, 422.66 477.49, 420.58 478.19 C 418.50 478.88, 417.29 479.24, 414.96 479.75 C 412.63 480.26, 411.31 480.47, 408.94 480.74 C 406.57 481.00, 405.27 481.07, 403.10 481.06 C 400.93 481.05, 399.84 480.95, 398.10 480.69 C 396.35 480.43, 395.57 480.21, 394.37 479.76 C 393.17 479.30, 392.71 479.08, 392.11 478.42 C 391.51 477.76, 391.35 477.41, 391.37 476.46 C 391.39 475.52, 391.55 474.93, 392.21 473.68 C 392.88 472.43, 393.41 471.65, 394.69 470.22 C 395.97 468.78, 396.87 467.93, 398.63 466.49 C 400.40 465.06, 401.54 464.26, 403.54 463.05 C 405.53 461.83, 406.70 461.24, 408.62 460.42 C 410.53 459.61, 411.54 459.37, 413.10 458.98 C 414.66 458.59, 415.39 458.61, 416.41 458.47 C 417.43 458.33, 417.74 458.32, 418.21 458.26 C 418.68 458.20, 418.76 458.11, 418.77 458.18 C 418.79 458.25, 418.73 458.28, 418.28 458.61 C 417.82 458.93, 417.44 459.23, 416.48 459.81 C 415.52 460.40, 414.86 460.81, 413.48 461.53 C 412.10 462.24, 411.20 462.68, 409.58 463.38 C 407.96 464.08, 406.98 464.39, 405.38 465.03 C 403.79 465.67, 402.88 465.95, 401.62 466.58 C 400.37 467.22, 399.85 467.56, 399.11 468.21 C 398.37 468.86, 398.06 469.12, 397.93 469.81 C 397.80 470.51, 397.95 471.17, 398.45 471.69" style="stroke: black; fill: black;"/><path d="M 446.02,458.43 C 445.35 458.46, 445.11 458.67, 444.44 459.25 C 443.76 459.83, 443.34 460.20, 442.63 461.32 C 441.92 462.44, 441.56 463.32, 440.88 464.83 C 440.20 466.35, 439.88 467.30, 439.24 468.88 C 438.60 470.47, 438.20 471.34, 437.68 472.74 C 437.17 474.13, 436.76 474.78, 436.68 475.85 C 436.59 476.91, 436.73 477.46, 437.26 478.06 C 437.80 478.67, 438.44 478.95, 439.34 478.87 C 440.25 478.80, 440.88 478.55, 441.78 477.69 C 442.69 476.83, 443.01 476.04, 443.87 474.58 C 444.74 473.13, 445.05 472.10, 446.13 470.42 C 447.20 468.74, 447.89 467.79, 449.26 466.19 C 450.62 464.59, 451.43 463.76, 452.97 462.44 C 454.51 461.11, 455.39 460.51, 456.96 459.55 C 458.54 458.59, 459.38 458.20, 460.85 457.64 C 462.32 457.07, 463.03 456.89, 464.31 456.72 C 465.60 456.55, 466.16 456.65, 467.28 456.77 C 468.41 456.89, 469.01 457.20, 469.94 457.32 C 470.86 457.43, 471.20 457.41, 471.89 457.35 C 472.58 457.29, 472.95 457.37, 473.38 457.02 C 473.81 456.68, 474.09 456.21, 474.04 455.63 C 473.98 455.06, 473.70 454.71, 473.11 454.16 C 472.52 453.61, 472.16 453.29, 471.08 452.89 C 470.00 452.49, 469.19 452.28, 467.72 452.15 C 466.25 452.03, 465.42 452.05, 463.74 452.26 C 462.05 452.47, 461.14 452.61, 459.29 453.21 C 457.45 453.82, 456.43 454.24, 454.51 455.28 C 452.60 456.32, 451.57 456.99, 449.71 458.43 C 447.85 459.86, 446.90 460.76, 445.22 462.47 C 443.54 464.18, 442.73 465.20, 441.32 466.96 C 439.92 468.72, 439.15 469.66, 438.22 471.26 C 437.29 472.86, 436.91 473.71, 436.68 474.97 C 436.46 476.23, 436.66 476.83, 437.10 477.56 C 437.53 478.29, 438.12 478.58, 438.86 478.61 C 439.59 478.63, 440.05 478.39, 440.76 477.67 C 441.47 476.94, 441.68 476.24, 442.42 474.98 C 443.16 473.72, 443.63 472.87, 444.46 471.37 C 445.29 469.87, 445.85 468.99, 446.58 467.46 C 447.30 465.94, 447.73 465.06, 448.09 463.74 C 448.46 462.43, 448.47 461.81, 448.41 460.88 C 448.36 459.95, 448.28 459.58, 447.80 459.09 C 447.32 458.60, 446.69 458.39, 446.02 458.43" style="stroke: black; fill: black;"/><path d="M 501.74,458.48 C 501.76 457.74, 501.51 457.27, 500.82 456.63 C 500.12 455.98, 499.54 455.59, 498.26 455.27 C 496.98 454.95, 496.06 454.85, 494.41 455.02 C 492.76 455.19, 491.85 455.45, 490.01 456.11 C 488.17 456.77, 487.15 457.22, 485.22 458.32 C 483.29 459.42, 482.18 460.13, 480.37 461.60 C 478.55 463.07, 477.60 464.00, 476.16 465.67 C 474.72 467.33, 474.02 468.26, 473.17 469.93 C 472.32 471.60, 472.00 472.49, 471.91 474.03 C 471.82 475.58, 472.01 476.42, 472.71 477.65 C 473.42 478.88, 474.07 479.51, 475.45 480.20 C 476.82 480.88, 477.77 481.08, 479.58 481.08 C 481.39 481.09, 482.45 480.84, 484.48 480.22 C 486.51 479.60, 487.62 479.07, 489.74 477.98 C 491.87 476.90, 493.02 476.20, 495.09 474.78 C 497.16 473.36, 498.25 472.49, 500.10 470.87 C 501.94 469.25, 502.86 468.28, 504.29 466.68 C 505.73 465.08, 506.54 464.29, 507.29 462.87 C 508.04 461.45, 508.26 460.56, 508.05 459.58 C 507.83 458.61, 507.19 458.11, 506.22 458.01 C 505.24 457.92, 504.34 458.19, 503.18 459.11 C 502.01 460.03, 501.30 460.94, 500.38 462.61 C 499.45 464.28, 499.17 465.55, 498.54 467.46 C 497.91 469.38, 497.57 470.41, 497.23 472.19 C 496.90 473.97, 496.77 474.83, 496.86 476.36 C 496.95 477.89, 497.11 478.65, 497.68 479.85 C 498.25 481.06, 498.81 481.69, 499.73 482.39 C 500.65 483.09, 501.38 483.35, 502.28 483.36 C 503.18 483.38, 503.79 483.04, 504.21 482.47 C 504.63 481.89, 504.56 481.11, 504.37 480.49 C 504.19 479.86, 503.73 479.67, 503.29 479.35 C 502.84 479.03, 502.56 479.11, 502.14 478.88 C 501.71 478.66, 501.37 478.71, 501.17 478.24 C 500.96 477.77, 500.94 477.45, 501.13 476.52 C 501.31 475.60, 501.51 474.96, 502.09 473.62 C 502.67 472.29, 503.16 471.42, 504.04 469.86 C 504.93 468.30, 505.74 467.38, 506.51 465.81 C 507.28 464.25, 507.66 463.33, 507.88 462.01 C 508.09 460.70, 507.97 459.96, 507.57 459.24 C 507.16 458.52, 506.66 458.26, 505.84 458.41 C 505.03 458.56, 504.55 459.05, 503.50 460.00 C 502.45 460.96, 501.97 461.83, 500.61 463.20 C 499.24 464.57, 498.37 465.44, 496.66 466.85 C 494.95 468.26, 493.94 469.03, 492.06 470.26 C 490.17 471.49, 489.09 472.07, 487.23 472.99 C 485.36 473.92, 484.36 474.30, 482.74 474.86 C 481.13 475.43, 480.34 475.56, 479.15 475.81 C 477.95 476.07, 477.47 476.12, 476.76 476.13 C 476.05 476.15, 475.83 476.17, 475.61 475.89 C 475.40 475.60, 475.37 475.40, 475.68 474.70 C 475.99 474.01, 476.29 473.50, 477.16 472.41 C 478.02 471.32, 478.67 470.56, 480.00 469.27 C 481.33 467.99, 482.20 467.19, 483.80 465.98 C 485.41 464.76, 486.39 464.14, 488.02 463.21 C 489.65 462.27, 490.54 461.83, 491.94 461.28 C 493.34 460.73, 493.95 460.61, 495.02 460.47 C 496.09 460.34, 496.48 460.54, 497.29 460.60 C 498.10 460.66, 498.36 460.82, 499.05 460.77 C 499.74 460.72, 500.20 460.79, 500.74 460.33 C 501.27 459.88, 501.73 459.22, 501.74 458.48" style="stroke: black; fill: black;"/><path d="M 547.85,457.50 C 547.84 456.79, 547.60 456.31, 546.85 455.73 C 546.10 455.15, 545.47 454.80, 544.10 454.60 C 542.74 454.40, 541.80 454.38, 540.02 454.73 C 538.24 455.07, 537.21 455.45, 535.21 456.32 C 533.21 457.19, 532.07 457.79, 530.02 459.07 C 527.97 460.34, 526.83 461.14, 524.95 462.70 C 523.07 464.27, 522.07 465.17, 520.62 466.88 C 519.17 468.60, 518.49 469.54, 517.71 471.28 C 516.94 473.02, 516.68 473.93, 516.75 475.58 C 516.81 477.23, 517.08 478.15, 518.03 479.52 C 518.99 480.88, 519.77 481.56, 521.50 482.41 C 523.24 483.27, 524.38 483.53, 526.71 483.78 C 529.04 484.04, 530.43 483.98, 533.14 483.70 C 535.85 483.41, 537.36 483.06, 540.25 482.36 C 543.14 481.66, 544.70 481.16, 547.60 480.20 C 550.51 479.25, 552.08 478.75, 554.79 477.60 C 557.49 476.45, 558.88 475.79, 561.14 474.46 C 563.40 473.12, 564.58 472.24, 566.09 470.93 C 567.59 469.63, 567.99 468.97, 568.67 467.93 C 569.35 466.90, 569.52 466.37, 569.50 465.76 C 569.48 465.14, 569.13 464.89, 568.56 464.86 C 567.98 464.83, 567.66 465.15, 566.63 465.61 C 565.61 466.07, 565.02 466.29, 563.43 467.18 C 561.83 468.08, 560.78 468.93, 558.66 470.08 C 556.53 471.23, 555.33 471.87, 552.81 472.93 C 550.30 473.99, 548.83 474.55, 546.08 475.39 C 543.34 476.22, 541.79 476.56, 539.08 477.10 C 536.38 477.64, 534.97 477.86, 532.57 478.09 C 530.18 478.32, 528.98 478.31, 527.11 478.27 C 525.23 478.22, 524.41 478.11, 523.19 477.87 C 521.97 477.63, 521.55 477.50, 521.00 477.06 C 520.45 476.62, 520.33 476.39, 520.45 475.66 C 520.57 474.94, 520.82 474.49, 521.59 473.43 C 522.37 472.37, 522.99 471.63, 524.34 470.35 C 525.68 469.06, 526.61 468.27, 528.33 466.99 C 530.06 465.71, 531.13 465.01, 532.97 463.93 C 534.80 462.85, 535.86 462.31, 537.51 461.59 C 539.16 460.87, 539.94 460.62, 541.21 460.32 C 542.48 460.01, 542.98 460.16, 543.85 460.06 C 544.73 459.96, 544.97 459.98, 545.59 459.83 C 546.20 459.67, 546.48 459.74, 546.93 459.27 C 547.38 458.81, 547.87 458.21, 547.85 457.50" style="stroke: black; fill: black;"/><path d="M 587.17,432.33 C 586.52 432.41, 586.36 432.60, 585.64 433.30 C 584.92 434.00, 584.46 434.42, 583.59 435.82 C 582.71 437.22, 582.25 438.25, 581.25 440.30 C 580.24 442.34, 579.70 443.63, 578.56 446.02 C 577.43 448.42, 576.72 449.78, 575.55 452.26 C 574.38 454.75, 573.76 456.10, 572.72 458.45 C 571.68 460.81, 571.17 461.97, 570.35 464.04 C 569.53 466.10, 569.11 467.09, 568.63 468.79 C 568.15 470.50, 568.00 471.29, 567.96 472.56 C 567.92 473.83, 568.02 474.55, 568.42 475.12 C 568.82 475.70, 569.39 475.76, 569.97 475.43 C 570.56 475.11, 570.77 474.50, 571.35 473.48 C 571.93 472.46, 572.19 471.84, 572.87 470.33 C 573.56 468.81, 573.88 467.86, 574.77 465.93 C 575.67 463.99, 576.21 462.88, 577.35 460.64 C 578.48 458.40, 579.16 457.11, 580.44 454.71 C 581.72 452.32, 582.49 451.00, 583.75 448.66 C 585.02 446.32, 585.74 445.08, 586.76 443.01 C 587.78 440.95, 588.32 439.94, 588.87 438.31 C 589.42 436.68, 589.50 435.96, 589.51 434.87 C 589.52 433.78, 589.37 433.38, 588.91 432.88 C 588.44 432.37, 587.83 432.25, 587.17 432.33" style="stroke: black; fill: black;"/><path d="M 568.79,460.25 C 569.26 460.78, 569.64 460.89, 570.67 461.07 C 571.70 461.25, 572.39 461.27, 573.94 461.17 C 575.48 461.06, 576.47 460.84, 578.39 460.53 C 580.30 460.22, 581.44 459.96, 583.52 459.61 C 585.60 459.26, 586.74 459.08, 588.80 458.78 C 590.86 458.48, 591.93 458.34, 593.81 458.10 C 595.68 457.87, 596.61 457.75, 598.16 457.60 C 599.72 457.44, 600.50 457.49, 601.60 457.32 C 602.70 457.16, 603.04 456.86, 603.66 456.78 C 604.28 456.70, 604.28 457.10, 604.71 456.92 C 605.13 456.75, 605.78 456.53, 605.79 455.91 C 605.79 455.29, 605.57 454.44, 604.74 453.83 C 603.91 453.22, 603.04 453.07, 601.66 452.87 C 600.28 452.67, 599.53 452.79, 597.86 452.85 C 596.19 452.90, 595.24 452.99, 593.31 453.13 C 591.38 453.28, 590.29 453.38, 588.19 453.56 C 586.09 453.75, 584.94 453.87, 582.81 454.06 C 580.67 454.25, 579.51 454.27, 577.52 454.52 C 575.53 454.77, 574.44 454.86, 572.88 455.31 C 571.31 455.77, 570.61 456.16, 569.70 456.78 C 568.79 457.41, 568.51 457.73, 568.33 458.43 C 568.15 459.12, 568.32 459.72, 568.79 460.25" style="stroke: black; fill: black;"/><path d="M 613.77,452.66 C 613.10 452.59, 612.77 452.69, 611.91 453.26 C 611.06 453.83, 610.47 454.27, 609.50 455.53 C 608.54 456.78, 608.01 457.80, 607.10 459.54 C 606.20 461.29, 605.77 462.41, 604.98 464.24 C 604.19 466.07, 603.73 467.07, 603.16 468.69 C 602.59 470.30, 602.39 471.09, 602.13 472.30 C 601.87 473.51, 601.78 473.97, 601.86 474.73 C 601.94 475.50, 602.24 475.77, 602.52 476.12 C 602.79 476.46, 603.00 476.42, 603.24 476.45 C 603.47 476.49, 603.49 476.34, 603.69 476.28 C 603.90 476.23, 603.95 476.34, 604.25 476.20 C 604.55 476.05, 604.79 476.05, 605.18 475.57 C 605.57 475.08, 605.69 474.73, 606.21 473.77 C 606.73 472.82, 607.01 472.16, 607.79 470.78 C 608.57 469.39, 609.13 468.50, 610.11 466.86 C 611.09 465.22, 611.75 464.24, 612.69 462.58 C 613.63 460.92, 614.24 460.00, 614.81 458.58 C 615.39 457.16, 615.47 456.47, 615.57 455.48 C 615.66 454.50, 615.64 454.20, 615.28 453.64 C 614.92 453.08, 614.44 452.74, 613.77 452.66" style="stroke: black; fill: black;"/><path d="M 624.30,433.76 C 624.93 434.09, 625.33 434.17, 625.22 434.35 C 625.11 434.52, 624.42 434.47, 623.73 434.62 C 623.05 434.77, 622.03 435.16, 621.79 435.10 C 621.56 435.05, 621.85 434.92, 622.56 434.33 C 623.26 433.75, 624.72 432.91, 625.32 432.19 C 625.91 431.47, 625.99 430.97, 625.55 430.74 C 625.11 430.51, 623.97 430.85, 623.12 431.03 C 622.28 431.21, 621.54 431.31, 621.32 431.64 C 621.10 431.96, 621.44 432.23, 622.03 432.65 C 622.63 433.08, 623.66 433.42, 624.30 433.76" style="stroke: black; fill: black;"/><path d="M 637.54,452.65 C 636.86 452.76, 636.61 453.03, 636.00 453.71 C 635.40 454.39, 635.07 454.85, 634.50 456.05 C 633.93 457.25, 633.69 458.12, 633.16 459.73 C 632.63 461.34, 632.38 462.33, 631.84 464.09 C 631.30 465.86, 630.95 466.83, 630.46 468.57 C 629.97 470.30, 629.66 471.19, 629.39 472.77 C 629.13 474.35, 628.97 475.15, 629.14 476.47 C 629.32 477.79, 629.53 478.45, 630.26 479.36 C 631.00 480.27, 631.63 480.72, 632.81 481.02 C 633.99 481.31, 634.77 481.29, 636.16 480.83 C 637.55 480.37, 638.25 479.88, 639.76 478.73 C 641.27 477.58, 642.05 476.75, 643.73 475.08 C 645.40 473.41, 646.36 472.33, 648.13 470.35 C 649.89 468.38, 650.88 467.20, 652.56 465.19 C 654.24 463.19, 655.12 462.11, 656.52 460.34 C 657.93 458.58, 658.61 457.72, 659.59 456.37 C 660.58 455.02, 660.94 454.46, 661.45 453.60 C 661.96 452.74, 662.04 452.53, 662.13 452.09 C 662.23 451.65, 662.00 451.57, 661.93 451.40 C 661.85 451.22, 661.70 451.37, 661.75 451.22 C 661.80 451.06, 662.21 450.85, 662.17 450.64 C 662.14 450.42, 661.97 450.26, 661.60 450.16 C 661.23 450.07, 660.91 449.96, 660.32 450.15 C 659.74 450.35, 659.50 450.49, 658.67 451.14 C 657.84 451.80, 657.37 452.26, 656.18 453.43 C 654.99 454.61, 654.26 455.40, 652.71 457.02 C 651.17 458.65, 650.22 459.67, 648.46 461.56 C 646.69 463.44, 645.66 464.56, 643.88 466.43 C 642.09 468.29, 641.11 469.31, 639.53 470.88 C 637.95 472.46, 637.15 473.16, 635.99 474.30 C 634.82 475.43, 634.33 475.85, 633.71 476.55 C 633.09 477.24, 633.04 477.49, 632.89 477.75 C 632.74 478.01, 632.88 478.08, 632.97 477.84 C 633.07 477.61, 633.12 477.37, 633.35 476.59 C 633.59 475.80, 633.71 475.19, 634.14 473.92 C 634.56 472.65, 634.86 471.82, 635.48 470.24 C 636.10 468.66, 636.53 467.72, 637.23 466.01 C 637.92 464.31, 638.39 463.35, 638.97 461.71 C 639.54 460.07, 639.86 459.17, 640.10 457.82 C 640.34 456.46, 640.30 455.85, 640.16 454.92 C 640.02 453.99, 639.92 453.61, 639.40 453.16 C 638.88 452.71, 638.22 452.54, 637.54 452.65" style="stroke: black; fill: black;"/><path d="M 670.82,468.26 C 671.31 468.74, 671.64 468.82, 672.58 468.90 C 673.53 468.98, 674.15 468.99, 675.53 468.66 C 676.91 468.33, 677.81 467.96, 679.47 467.25 C 681.13 466.53, 682.09 466.00, 683.82 465.08 C 685.54 464.17, 686.51 463.65, 688.08 462.66 C 689.66 461.68, 690.48 461.20, 691.70 460.15 C 692.91 459.11, 693.52 458.59, 694.17 457.44 C 694.81 456.29, 695.04 455.58, 694.91 454.39 C 694.78 453.20, 694.47 452.39, 693.50 451.49 C 692.53 450.58, 691.72 450.13, 690.05 449.87 C 688.38 449.61, 687.28 449.71, 685.13 450.19 C 682.98 450.67, 681.68 451.15, 679.29 452.26 C 676.89 453.37, 675.49 454.15, 673.16 455.72 C 670.83 457.28, 669.56 458.25, 667.63 460.07 C 665.70 461.89, 664.75 462.90, 663.53 464.81 C 662.30 466.73, 661.81 467.75, 661.49 469.63 C 661.16 471.50, 661.24 472.52, 661.91 474.18 C 662.58 475.84, 663.24 476.70, 664.82 477.94 C 666.41 479.19, 667.52 479.69, 669.83 480.41 C 672.14 481.13, 673.57 481.33, 676.37 481.54 C 679.18 481.75, 680.82 481.60, 683.86 481.48 C 686.90 481.36, 688.58 481.21, 691.57 480.94 C 694.56 480.68, 696.28 480.58, 698.82 480.14 C 701.37 479.71, 702.56 479.36, 704.29 478.76 C 706.02 478.16, 706.90 477.78, 707.49 477.15 C 708.08 476.52, 707.99 476.03, 707.25 475.61 C 706.51 475.19, 705.58 475.16, 703.78 475.05 C 701.98 474.94, 700.76 474.89, 698.23 475.04 C 695.71 475.19, 694.04 475.56, 691.14 475.79 C 688.24 476.03, 686.60 476.17, 683.73 476.19 C 680.87 476.21, 679.33 476.10, 676.82 475.90 C 674.31 475.69, 673.08 475.53, 671.17 475.17 C 669.26 474.81, 668.45 474.58, 667.27 474.08 C 666.09 473.58, 665.67 473.36, 665.28 472.66 C 664.88 471.96, 664.88 471.59, 665.28 470.58 C 665.68 469.57, 666.11 468.91, 667.28 467.60 C 668.44 466.29, 669.30 465.46, 671.09 464.05 C 672.88 462.63, 674.09 461.80, 676.22 460.52 C 678.35 459.24, 679.65 458.58, 681.73 457.65 C 683.81 456.73, 684.95 456.42, 686.61 455.91 C 688.27 455.39, 689.01 455.34, 690.03 455.09 C 691.05 454.84, 691.32 454.79, 691.72 454.65 C 692.12 454.52, 692.15 454.38, 692.03 454.43 C 691.91 454.47, 691.75 454.53, 691.13 454.89 C 690.50 455.25, 690.02 455.60, 688.89 456.23 C 687.77 456.86, 687.01 457.30, 685.50 458.04 C 683.99 458.77, 683.03 459.20, 681.35 459.91 C 679.67 460.62, 678.69 460.93, 677.10 461.57 C 675.51 462.21, 674.62 462.45, 673.41 463.10 C 672.20 463.76, 671.71 464.16, 671.05 464.85 C 670.40 465.53, 670.20 465.82, 670.15 466.51 C 670.11 467.19, 670.34 467.78, 670.82 468.26" style="stroke: black; fill: black;"/><path d="M 804.96,456.84 C 805.17 456.14, 805.07 455.63, 804.59 454.86 C 804.11 454.10, 803.64 453.60, 802.55 453.01 C 801.45 452.43, 800.64 452.17, 799.11 451.95 C 797.58 451.73, 796.75 451.73, 794.89 451.91 C 793.04 452.09, 792.00 452.22, 789.86 452.85 C 787.71 453.48, 786.49 453.93, 784.17 455.06 C 781.85 456.19, 780.53 456.96, 778.27 458.51 C 776.00 460.06, 774.78 461.02, 772.85 462.80 C 770.92 464.58, 769.97 465.58, 768.62 467.43 C 767.26 469.27, 766.67 470.26, 766.07 472.04 C 765.48 473.81, 765.38 474.75, 765.63 476.31 C 765.88 477.87, 766.28 478.68, 767.32 479.83 C 768.37 480.98, 769.19 481.51, 770.84 482.05 C 772.50 482.59, 773.55 482.66, 775.60 482.52 C 777.65 482.38, 778.81 482.08, 781.08 481.36 C 783.35 480.63, 784.57 480.07, 786.93 478.89 C 789.30 477.72, 790.57 476.98, 792.90 475.46 C 795.23 473.95, 796.46 473.05, 798.58 471.31 C 800.70 469.58, 801.74 468.55, 803.51 466.79 C 805.28 465.03, 806.22 464.15, 807.44 462.51 C 808.65 460.88, 809.29 459.92, 809.57 458.62 C 809.85 457.33, 809.55 456.57, 808.85 456.03 C 808.15 455.49, 807.29 455.42, 806.07 455.92 C 804.85 456.42, 803.97 457.07, 802.74 458.53 C 801.51 459.98, 800.89 461.22, 799.91 463.20 C 798.93 465.17, 798.52 466.43, 797.85 468.40 C 797.18 470.37, 796.86 471.32, 796.56 473.04 C 796.26 474.76, 796.13 475.56, 796.34 476.99 C 796.54 478.41, 796.82 479.10, 797.59 480.17 C 798.37 481.24, 798.98 481.76, 800.21 482.34 C 801.45 482.92, 802.41 483.14, 803.75 483.07 C 805.10 483.01, 805.97 482.69, 806.93 482.03 C 807.88 481.36, 808.37 480.58, 808.53 479.74 C 808.68 478.90, 808.34 478.33, 807.71 477.82 C 807.08 477.31, 806.31 477.28, 805.39 477.21 C 804.47 477.14, 803.92 477.29, 803.10 477.48 C 802.28 477.67, 801.83 478.04, 801.29 478.16 C 800.75 478.29, 800.60 478.37, 800.39 478.10 C 800.18 477.84, 800.11 477.61, 800.24 476.85 C 800.37 476.08, 800.51 475.53, 801.03 474.28 C 801.56 473.04, 801.94 472.21, 802.86 470.62 C 803.77 469.04, 804.52 468.06, 805.59 466.34 C 806.66 464.62, 807.46 463.62, 808.19 462.04 C 808.91 460.45, 809.16 459.54, 809.23 458.40 C 809.29 457.25, 809.06 456.68, 808.51 456.32 C 807.96 455.96, 807.45 456.00, 806.49 456.60 C 805.52 457.20, 804.99 458.00, 803.69 459.32 C 802.39 460.63, 801.65 461.57, 799.98 463.16 C 798.30 464.74, 797.31 465.67, 795.32 467.23 C 793.32 468.78, 792.17 469.58, 790.01 470.92 C 787.85 472.27, 786.64 472.92, 784.51 473.96 C 782.37 474.99, 781.25 475.44, 779.35 476.08 C 777.45 476.72, 776.50 476.88, 774.99 477.15 C 773.48 477.42, 772.83 477.43, 771.81 477.41 C 770.78 477.39, 770.40 477.35, 769.88 477.06 C 769.36 476.76, 769.19 476.61, 769.20 475.94 C 769.22 475.27, 769.33 474.80, 769.96 473.71 C 770.60 472.61, 771.10 471.86, 772.37 470.48 C 773.64 469.09, 774.53 468.24, 776.32 466.77 C 778.12 465.30, 779.28 464.47, 781.34 463.13 C 783.41 461.80, 784.62 461.11, 786.65 460.10 C 788.68 459.10, 789.72 458.68, 791.48 458.11 C 793.24 457.53, 794.10 457.39, 795.46 457.23 C 796.83 457.06, 797.34 457.13, 798.30 457.29 C 799.27 457.44, 799.55 457.77, 800.27 458.01 C 800.99 458.26, 801.24 458.44, 801.90 458.52 C 802.56 458.59, 802.95 458.72, 803.56 458.38 C 804.17 458.05, 804.76 457.55, 804.96 456.84" style="stroke: black; fill: black;"/><path d="M 827.06,456.26 C 826.35 456.33, 826.07 456.63, 825.32 457.33 C 824.56 458.04, 824.10 458.49, 823.29 459.77 C 822.48 461.05, 821.99 462.02, 821.27 463.72 C 820.55 465.41, 820.23 466.47, 819.71 468.24 C 819.19 470.02, 818.87 470.95, 818.68 472.61 C 818.48 474.28, 818.42 475.14, 818.73 476.58 C 819.04 478.02, 819.36 478.75, 820.25 479.81 C 821.13 480.88, 821.80 481.37, 823.16 481.90 C 824.53 482.42, 825.39 482.53, 827.06 482.43 C 828.73 482.32, 829.67 482.07, 831.53 481.38 C 833.39 480.69, 834.40 480.16, 836.37 479.00 C 838.33 477.83, 839.38 477.08, 841.36 475.56 C 843.34 474.04, 844.41 473.13, 846.28 471.39 C 848.15 469.64, 849.13 468.62, 850.73 466.84 C 852.33 465.05, 853.10 464.06, 854.27 462.45 C 855.44 460.83, 856.10 460.08, 856.57 458.76 C 857.05 457.45, 857.07 456.64, 856.63 455.86 C 856.20 455.08, 855.45 454.72, 854.41 454.85 C 853.38 454.99, 852.55 455.43, 851.45 456.52 C 850.34 457.62, 849.78 458.57, 848.89 460.34 C 848.01 462.11, 847.68 463.39, 847.02 465.38 C 846.37 467.36, 845.97 468.42, 845.60 470.27 C 845.22 472.13, 845.08 473.04, 845.14 474.64 C 845.19 476.25, 845.33 476.98, 845.87 478.31 C 846.41 479.63, 846.82 480.32, 847.84 481.27 C 848.86 482.22, 849.72 482.70, 850.98 483.07 C 852.23 483.45, 853.07 483.43, 854.12 483.14 C 855.16 482.86, 855.82 482.35, 856.19 481.64 C 856.57 480.94, 856.41 480.25, 856.01 479.61 C 855.60 478.98, 854.94 478.78, 854.18 478.47 C 853.41 478.16, 852.95 478.19, 852.20 478.07 C 851.44 477.95, 850.93 478.11, 850.39 477.89 C 849.85 477.67, 849.67 477.55, 849.49 476.95 C 849.31 476.34, 849.27 475.92, 849.47 474.87 C 849.66 473.82, 849.86 473.15, 850.45 471.71 C 851.05 470.28, 851.54 469.36, 852.45 467.70 C 853.35 466.04, 854.14 465.04, 854.97 463.40 C 855.80 461.76, 856.27 460.88, 856.60 459.50 C 856.93 458.11, 856.93 457.33, 856.62 456.47 C 856.31 455.62, 855.78 455.24, 855.04 455.22 C 854.31 455.21, 853.85 455.56, 852.93 456.40 C 852.00 457.24, 851.63 458.02, 850.43 459.40 C 849.23 460.78, 848.47 461.68, 846.91 463.29 C 845.36 464.89, 844.42 465.83, 842.65 467.41 C 840.88 468.99, 839.87 469.82, 838.04 471.18 C 836.22 472.54, 835.24 473.19, 833.53 474.20 C 831.82 475.22, 830.93 475.62, 829.49 476.25 C 828.04 476.88, 827.37 477.06, 826.31 477.35 C 825.26 477.65, 824.87 477.72, 824.23 477.73 C 823.58 477.74, 823.38 477.73, 823.10 477.41 C 822.81 477.09, 822.75 476.87, 822.81 476.12 C 822.87 475.36, 822.99 474.82, 823.41 473.64 C 823.83 472.46, 824.22 471.68, 824.92 470.21 C 825.63 468.73, 826.18 467.84, 826.94 466.27 C 827.69 464.70, 828.22 463.78, 828.70 462.35 C 829.18 460.93, 829.31 460.20, 829.35 459.13 C 829.39 458.05, 829.34 457.56, 828.88 456.98 C 828.43 456.41, 827.77 456.19, 827.06 456.26" style="stroke: black; fill: black;"/><path d="M 903.32,461.63 C 903.69 460.99, 903.71 460.41, 903.36 459.60 C 903.01 458.79, 902.57 458.24, 901.56 457.60 C 900.56 456.95, 899.79 456.62, 898.33 456.37 C 896.88 456.11, 896.05 456.12, 894.29 456.33 C 892.54 456.54, 891.55 456.72, 889.55 457.41 C 887.56 458.10, 886.42 458.60, 884.32 459.77 C 882.23 460.94, 881.06 461.71, 879.09 463.26 C 877.13 464.81, 876.08 465.77, 874.50 467.50 C 872.93 469.24, 872.18 470.20, 871.22 471.95 C 870.27 473.69, 869.93 474.61, 869.73 476.24 C 869.53 477.87, 869.62 478.72, 870.21 480.10 C 870.80 481.47, 871.37 482.20, 872.69 483.12 C 874.00 484.04, 874.97 484.41, 876.80 484.68 C 878.62 484.96, 879.70 484.85, 881.82 484.50 C 883.93 484.14, 885.11 483.79, 887.37 482.92 C 889.63 482.05, 890.87 481.46, 893.13 480.14 C 895.39 478.81, 896.54 477.98, 898.68 476.30 C 900.82 474.62, 901.89 473.67, 903.83 471.72 C 905.78 469.77, 906.71 468.68, 908.40 466.55 C 910.08 464.42, 910.87 463.25, 912.26 461.05 C 913.66 458.85, 914.26 457.68, 915.37 455.53 C 916.47 453.38, 916.96 452.29, 917.79 450.30 C 918.62 448.31, 918.94 447.31, 919.50 445.58 C 920.06 443.85, 920.44 443.07, 920.59 441.65 C 920.73 440.22, 920.76 439.39, 920.21 438.47 C 919.67 437.54, 918.95 437.07, 917.87 437.03 C 916.79 437.00, 916.02 437.25, 914.80 438.30 C 913.58 439.35, 912.95 440.29, 911.77 442.29 C 910.60 444.29, 910.07 445.76, 908.92 448.28 C 907.76 450.80, 907.13 452.30, 906.00 454.91 C 904.86 457.52, 904.24 458.88, 903.25 461.33 C 902.26 463.79, 901.77 464.99, 901.06 467.18 C 900.35 469.36, 900.03 470.40, 899.69 472.25 C 899.35 474.10, 899.28 474.93, 899.35 476.42 C 899.42 477.92, 899.57 478.65, 900.06 479.73 C 900.55 480.81, 901.08 481.29, 901.80 481.83 C 902.51 482.36, 903.02 482.43, 903.63 482.42 C 904.24 482.41, 904.60 482.21, 904.84 481.77 C 905.09 481.33, 904.93 480.65, 904.86 480.21 C 904.78 479.76, 904.59 479.77, 904.46 479.55 C 904.32 479.32, 904.36 479.33, 904.17 479.09 C 903.99 478.84, 903.69 478.87, 903.54 478.34 C 903.39 477.82, 903.32 477.49, 903.42 476.46 C 903.51 475.44, 903.60 474.77, 904.03 473.23 C 904.45 471.70, 904.76 470.76, 905.54 468.78 C 906.31 466.81, 906.82 465.67, 907.91 463.37 C 909.00 461.08, 909.68 459.77, 910.99 457.31 C 912.29 454.84, 913.12 453.44, 914.43 451.05 C 915.74 448.66, 916.60 447.36, 917.54 445.35 C 918.49 443.34, 918.90 442.36, 919.17 441.01 C 919.44 439.66, 919.27 439.11, 918.91 438.59 C 918.55 438.07, 917.93 438.03, 917.37 438.43 C 916.81 438.83, 916.56 439.46, 916.10 440.59 C 915.64 441.72, 915.62 442.53, 915.07 444.09 C 914.52 445.65, 914.17 446.57, 913.36 448.40 C 912.55 450.23, 912.07 451.26, 911.01 453.26 C 909.95 455.25, 909.37 456.33, 908.06 458.36 C 906.75 460.39, 906.01 461.46, 904.45 463.40 C 902.88 465.35, 902.03 466.33, 900.23 468.09 C 898.44 469.84, 897.44 470.69, 895.49 472.17 C 893.53 473.64, 892.48 474.35, 890.46 475.48 C 888.45 476.60, 887.34 477.06, 885.41 477.78 C 883.48 478.50, 882.46 478.74, 880.81 479.09 C 879.17 479.44, 878.41 479.47, 877.19 479.52 C 875.96 479.56, 875.45 479.48, 874.70 479.31 C 873.94 479.14, 873.66 479.09, 873.44 478.65 C 873.21 478.21, 873.23 477.93, 873.57 477.09 C 873.91 476.25, 874.21 475.65, 875.15 474.47 C 876.08 473.28, 876.77 472.52, 878.23 471.16 C 879.69 469.80, 880.68 468.96, 882.44 467.66 C 884.21 466.37, 885.27 465.70, 887.07 464.70 C 888.87 463.70, 889.85 463.28, 891.45 462.68 C 893.05 462.07, 893.85 461.89, 895.06 461.68 C 896.27 461.46, 896.72 461.49, 897.49 461.59 C 898.27 461.70, 898.42 461.98, 898.94 462.20 C 899.45 462.42, 899.55 462.57, 900.07 462.69 C 900.59 462.81, 900.88 463.03, 901.53 462.81 C 902.18 462.60, 902.96 462.28, 903.32 461.63" style="stroke: black; fill: black;"/><path d="M 925.81,462.22 C 925.12 462.31, 924.90 462.58, 924.19 463.23 C 923.48 463.88, 923.04 464.32, 922.27 465.48 C 921.49 466.64, 921.07 467.53, 920.33 469.05 C 919.60 470.56, 919.21 471.53, 918.60 473.05 C 917.98 474.57, 917.66 475.41, 917.26 476.65 C 916.86 477.89, 916.69 478.41, 916.58 479.26 C 916.48 480.12, 916.49 480.43, 916.73 480.91 C 916.98 481.39, 917.46 481.55, 917.81 481.66 C 918.16 481.78, 918.56 481.57, 918.48 481.48 C 918.41 481.39, 917.53 481.20, 917.43 481.22 C 917.32 481.25, 917.63 481.51, 917.97 481.60 C 918.30 481.68, 918.67 481.81, 919.11 481.65 C 919.55 481.50, 919.67 481.40, 920.18 480.82 C 920.69 480.25, 920.98 479.82, 921.68 478.77 C 922.38 477.73, 922.82 476.97, 923.66 475.59 C 924.50 474.21, 925.08 473.37, 925.88 471.88 C 926.68 470.39, 927.18 469.52, 927.66 468.13 C 928.14 466.74, 928.29 465.99, 928.29 464.93 C 928.30 463.87, 928.16 463.36, 927.67 462.82 C 927.17 462.27, 926.51 462.14, 925.81 462.22" style="stroke: black; fill: black;"/><path d="M 937.61,441.89 C 938.32 441.79, 938.63 441.90, 938.58 441.92 C 938.53 441.93, 938.01 442.07, 937.35 441.95 C 936.69 441.83, 935.98 441.34, 935.29 441.32 C 934.60 441.29, 933.98 441.59, 933.92 441.81 C 933.86 442.03, 934.27 442.40, 935.01 442.41 C 935.74 442.43, 936.89 441.99, 937.61 441.89" style="stroke: black; fill: black;"/><path d="M 961.56,460.88 C 961.50 460.17, 961.23 459.79, 960.52 459.25 C 959.80 458.71, 959.25 458.39, 957.97 458.20 C 956.70 458.01, 955.77 458.00, 954.15 458.31 C 952.52 458.63, 951.62 459.00, 949.85 459.77 C 948.08 460.55, 947.09 461.04, 945.30 462.18 C 943.52 463.32, 942.51 464.02, 940.94 465.46 C 939.36 466.89, 938.53 467.74, 937.42 469.36 C 936.32 470.97, 935.83 471.87, 935.42 473.52 C 935.01 475.16, 934.96 476.08, 935.35 477.59 C 935.75 479.09, 936.21 479.92, 937.41 481.04 C 938.61 482.16, 939.52 482.66, 941.36 483.19 C 943.19 483.72, 944.33 483.80, 946.57 483.72 C 948.82 483.63, 950.12 483.39, 952.58 482.77 C 955.03 482.15, 956.41 481.68, 958.83 480.62 C 961.26 479.57, 962.55 478.89, 964.70 477.50 C 966.86 476.12, 967.94 475.29, 969.61 473.69 C 971.29 472.09, 972.05 471.18, 973.06 469.48 C 974.08 467.78, 974.44 466.84, 974.70 465.20 C 974.97 463.56, 974.85 462.68, 974.38 461.26 C 973.92 459.85, 973.42 459.14, 972.38 458.12 C 971.35 457.10, 970.51 456.59, 969.22 456.18 C 967.93 455.78, 967.00 455.82, 965.94 456.10 C 964.87 456.38, 964.27 456.90, 963.89 457.57 C 963.51 458.25, 963.66 458.87, 964.04 459.49 C 964.41 460.11, 965.00 460.33, 965.75 460.68 C 966.51 461.03, 967.02 461.07, 967.81 461.24 C 968.60 461.41, 969.11 461.30, 969.70 461.55 C 970.28 461.80, 970.53 461.94, 970.74 462.50 C 970.94 463.06, 971.00 463.44, 970.72 464.34 C 970.43 465.23, 970.18 465.83, 969.30 466.98 C 968.43 468.12, 967.80 468.84, 966.34 470.06 C 964.88 471.27, 963.91 471.96, 961.99 473.07 C 960.07 474.18, 958.89 474.74, 956.74 475.59 C 954.59 476.44, 953.33 476.81, 951.22 477.32 C 949.12 477.83, 947.99 477.98, 946.22 478.15 C 944.45 478.33, 943.63 478.27, 942.37 478.18 C 941.11 478.09, 940.61 477.99, 939.93 477.69 C 939.25 477.40, 939.06 477.27, 938.97 476.72 C 938.88 476.17, 939.00 475.81, 939.47 474.95 C 939.95 474.09, 940.35 473.50, 941.34 472.42 C 942.34 471.35, 943.07 470.68, 944.46 469.58 C 945.84 468.49, 946.74 467.88, 948.27 466.96 C 949.80 466.04, 950.71 465.59, 952.12 464.98 C 953.53 464.37, 954.21 464.17, 955.33 463.90 C 956.45 463.64, 956.91 463.75, 957.72 463.66 C 958.53 463.57, 958.76 463.61, 959.37 463.44 C 959.99 463.27, 960.35 463.31, 960.79 462.80 C 961.23 462.28, 961.61 461.59, 961.56 460.88" style="stroke: black; fill: black;"/><path d="M 1041.84,459.36 C 1041.20 459.49, 1041.00 459.66, 1040.45 460.29 C 1039.89 460.93, 1039.58 461.36, 1039.09 462.52 C 1038.59 463.69, 1038.40 464.51, 1037.99 466.12 C 1037.57 467.72, 1037.39 468.75, 1037.03 470.56 C 1036.68 472.37, 1036.43 473.37, 1036.19 475.16 C 1035.95 476.96, 1035.82 477.89, 1035.84 479.51 C 1035.85 481.14, 1035.89 481.94, 1036.26 483.29 C 1036.63 484.65, 1036.90 485.31, 1037.70 486.29 C 1038.51 487.27, 1039.10 487.73, 1040.30 488.19 C 1041.50 488.64, 1042.27 488.75, 1043.71 488.57 C 1045.15 488.38, 1045.92 488.09, 1047.51 487.24 C 1049.09 486.40, 1049.92 485.77, 1051.63 484.35 C 1053.34 482.94, 1054.27 482.02, 1056.07 480.17 C 1057.86 478.33, 1058.84 477.19, 1060.60 475.12 C 1062.36 473.06, 1063.31 471.87, 1064.86 469.84 C 1066.40 467.80, 1067.17 466.72, 1068.34 464.95 C 1069.52 463.18, 1070.06 462.36, 1070.72 460.99 C 1071.37 459.63, 1071.46 459.01, 1071.63 458.11 C 1071.80 457.21, 1071.79 456.92, 1071.57 456.48 C 1071.36 456.04, 1071.04 455.88, 1070.55 455.91 C 1070.07 455.94, 1069.84 456.11, 1069.16 456.65 C 1068.47 457.20, 1068.08 457.56, 1067.13 458.64 C 1066.18 459.73, 1065.70 460.50, 1064.42 462.07 C 1063.14 463.65, 1062.33 464.64, 1060.73 466.52 C 1059.13 468.39, 1058.16 469.52, 1056.41 471.44 C 1054.66 473.37, 1053.68 474.45, 1051.98 476.16 C 1050.28 477.86, 1049.38 478.68, 1047.91 479.98 C 1046.44 481.27, 1045.71 481.80, 1044.62 482.62 C 1043.53 483.45, 1043.13 483.72, 1042.47 484.11 C 1041.82 484.50, 1041.70 484.57, 1041.36 484.58 C 1041.03 484.58, 1040.97 484.53, 1040.80 484.12 C 1040.63 483.71, 1040.55 483.38, 1040.52 482.52 C 1040.49 481.65, 1040.47 481.05, 1040.64 479.78 C 1040.81 478.50, 1040.98 477.72, 1041.39 476.16 C 1041.79 474.59, 1042.13 473.66, 1042.65 471.96 C 1043.16 470.27, 1043.54 469.29, 1043.97 467.70 C 1044.41 466.10, 1044.69 465.29, 1044.82 463.99 C 1044.96 462.69, 1044.89 462.05, 1044.66 461.19 C 1044.42 460.32, 1044.22 460.02, 1043.66 459.65 C 1043.09 459.29, 1042.49 459.23, 1041.84 459.36" style="stroke: black; fill: black;"/><path d="M 1083.47,460.36 C 1082.80 460.41, 1082.60 460.63, 1081.91 461.21 C 1081.21 461.80, 1080.77 462.16, 1079.99 463.28 C 1079.21 464.41, 1078.77 465.30, 1078.01 466.83 C 1077.25 468.36, 1076.89 469.32, 1076.18 470.93 C 1075.46 472.53, 1075.03 473.38, 1074.43 474.85 C 1073.82 476.32, 1073.50 477.10, 1073.17 478.29 C 1072.85 479.48, 1072.77 480.01, 1072.81 480.81 C 1072.85 481.60, 1073.12 481.88, 1073.38 482.27 C 1073.63 482.66, 1073.82 482.67, 1074.08 482.76 C 1074.34 482.85, 1074.43 482.74, 1074.67 482.71 C 1074.92 482.67, 1074.97 482.76, 1075.32 482.59 C 1075.67 482.42, 1075.98 482.37, 1076.40 481.85 C 1076.82 481.33, 1076.91 480.93, 1077.44 479.99 C 1077.97 479.04, 1078.30 478.40, 1079.05 477.12 C 1079.80 475.83, 1080.29 475.02, 1081.19 473.55 C 1082.08 472.07, 1082.69 471.24, 1083.52 469.73 C 1084.36 468.22, 1084.90 467.36, 1085.37 466.00 C 1085.85 464.63, 1085.93 463.91, 1085.91 462.90 C 1085.89 461.90, 1085.76 461.47, 1085.27 460.96 C 1084.78 460.45, 1084.14 460.31, 1083.47 460.36" style="stroke: black; fill: black;"/><path d="M 1093.94,441.54 C 1094.67 441.33, 1095.08 441.13, 1095.04 441.27 C 1095.00 441.42, 1094.32 441.83, 1093.72 442.29 C 1093.12 442.75, 1092.31 443.45, 1092.04 443.58 C 1091.77 443.71, 1091.92 443.65, 1092.36 442.95 C 1092.80 442.24, 1093.97 440.87, 1094.24 440.06 C 1094.50 439.24, 1094.25 438.83, 1093.70 438.87 C 1093.14 438.90, 1092.18 439.62, 1091.46 440.22 C 1090.74 440.82, 1090.09 441.44, 1090.08 441.86 C 1090.06 442.28, 1090.63 442.39, 1091.40 442.33 C 1092.17 442.26, 1093.21 441.76, 1093.94 441.54" style="stroke: black; fill: black;"/><path d="M 1121.51,457.25 C 1121.32 456.54, 1120.94 456.15, 1120.01 455.64 C 1119.08 455.12, 1118.39 454.82, 1116.87 454.68 C 1115.36 454.54, 1114.27 454.60, 1112.44 454.95 C 1110.61 455.31, 1109.57 455.74, 1107.72 456.44 C 1105.87 457.15, 1104.85 457.57, 1103.19 458.47 C 1101.53 459.38, 1100.64 459.88, 1099.40 460.98 C 1098.15 462.09, 1097.56 462.72, 1096.95 464.02 C 1096.34 465.32, 1096.18 466.11, 1096.33 467.48 C 1096.47 468.85, 1096.79 469.65, 1097.68 470.89 C 1098.56 472.12, 1099.31 472.70, 1100.75 473.65 C 1102.18 474.60, 1103.18 474.93, 1104.85 475.63 C 1106.53 476.33, 1107.54 476.60, 1109.13 477.15 C 1110.72 477.71, 1111.59 477.99, 1112.81 478.39 C 1114.04 478.80, 1114.59 479.00, 1115.25 479.18 C 1115.92 479.36, 1116.10 479.32, 1116.15 479.32 C 1116.19 479.31, 1116.04 479.14, 1115.48 479.17 C 1114.91 479.21, 1114.45 479.23, 1113.31 479.49 C 1112.18 479.75, 1111.40 480.04, 1109.82 480.47 C 1108.24 480.91, 1107.22 481.23, 1105.42 481.66 C 1103.62 482.09, 1102.55 482.31, 1100.83 482.62 C 1099.10 482.93, 1098.17 483.06, 1096.81 483.23 C 1095.45 483.40, 1094.89 483.36, 1094.02 483.48 C 1093.15 483.59, 1092.93 483.69, 1092.45 483.82 C 1091.97 483.95, 1091.90 483.90, 1091.62 484.14 C 1091.33 484.37, 1091.05 484.56, 1091.02 484.98 C 1091.00 485.40, 1091.01 485.71, 1091.50 486.22 C 1092.00 486.73, 1092.40 487.18, 1093.49 487.55 C 1094.57 487.92, 1095.34 488.00, 1096.95 488.09 C 1098.55 488.18, 1099.58 488.13, 1101.51 487.98 C 1103.43 487.83, 1104.57 487.69, 1106.57 487.35 C 1108.57 487.01, 1109.70 486.84, 1111.51 486.29 C 1113.32 485.74, 1114.27 485.44, 1115.60 484.59 C 1116.93 483.75, 1117.52 483.18, 1118.18 482.07 C 1118.85 480.95, 1119.01 480.19, 1118.92 479.01 C 1118.83 477.82, 1118.54 477.17, 1117.75 476.16 C 1116.96 475.14, 1116.28 474.75, 1114.98 473.92 C 1113.67 473.10, 1112.78 472.78, 1111.21 472.05 C 1109.65 471.31, 1108.70 470.92, 1107.15 470.25 C 1105.61 469.57, 1104.75 469.20, 1103.49 468.66 C 1102.24 468.13, 1101.64 467.93, 1100.89 467.58 C 1100.14 467.23, 1099.88 467.18, 1099.74 466.89 C 1099.60 466.60, 1099.69 466.53, 1100.18 466.12 C 1100.68 465.71, 1101.14 465.43, 1102.20 464.86 C 1103.27 464.30, 1104.03 463.89, 1105.51 463.29 C 1106.98 462.69, 1107.96 462.34, 1109.58 461.85 C 1111.20 461.36, 1112.12 461.12, 1113.59 460.83 C 1115.07 460.53, 1115.80 460.54, 1116.94 460.37 C 1118.09 460.20, 1118.50 460.21, 1119.31 459.98 C 1120.12 459.74, 1120.55 459.76, 1120.99 459.21 C 1121.43 458.67, 1121.71 457.97, 1121.51 457.25" style="stroke: black; fill: black;"/><path d="M 1139.30,462.60 C 1138.63 462.52, 1138.36 462.68, 1137.57 463.16 C 1136.78 463.64, 1136.25 463.95, 1135.35 465.02 C 1134.45 466.09, 1133.90 466.97, 1133.06 468.53 C 1132.22 470.09, 1131.81 471.09, 1131.14 472.82 C 1130.48 474.54, 1130.11 475.46, 1129.73 477.14 C 1129.36 478.83, 1129.18 479.70, 1129.29 481.23 C 1129.40 482.76, 1129.59 483.54, 1130.27 484.79 C 1130.95 486.05, 1131.48 486.67, 1132.71 487.48 C 1133.93 488.30, 1134.77 488.62, 1136.40 488.87 C 1138.04 489.12, 1138.99 489.05, 1140.89 488.73 C 1142.79 488.40, 1143.84 488.07, 1145.90 487.26 C 1147.96 486.44, 1149.08 485.87, 1151.20 484.67 C 1153.32 483.46, 1154.43 482.72, 1156.49 481.23 C 1158.55 479.74, 1159.64 478.88, 1161.48 477.23 C 1163.32 475.57, 1164.23 474.62, 1165.70 472.95 C 1167.18 471.28, 1167.86 470.39, 1168.85 468.88 C 1169.85 467.37, 1170.40 466.67, 1170.69 465.40 C 1170.98 464.13, 1170.90 463.32, 1170.32 462.55 C 1169.74 461.77, 1168.92 461.39, 1167.79 461.51 C 1166.66 461.63, 1165.83 462.06, 1164.65 463.14 C 1163.47 464.21, 1162.89 465.14, 1161.90 466.89 C 1160.91 468.63, 1160.49 469.88, 1159.71 471.86 C 1158.93 473.84, 1158.50 474.91, 1158.01 476.79 C 1157.51 478.66, 1157.32 479.58, 1157.24 481.24 C 1157.16 482.89, 1157.21 483.69, 1157.60 485.04 C 1157.98 486.39, 1158.39 487.09, 1159.16 487.98 C 1159.93 488.87, 1160.57 489.26, 1161.43 489.50 C 1162.29 489.74, 1162.93 489.58, 1163.45 489.16 C 1163.97 488.74, 1164.07 488.00, 1164.04 487.40 C 1164.00 486.79, 1163.63 486.56, 1163.28 486.13 C 1162.94 485.71, 1162.67 485.68, 1162.31 485.26 C 1161.95 484.85, 1161.61 484.75, 1161.48 484.06 C 1161.34 483.37, 1161.37 482.92, 1161.65 481.81 C 1161.92 480.69, 1162.18 479.96, 1162.86 478.48 C 1163.54 476.99, 1164.07 476.06, 1165.03 474.40 C 1165.99 472.74, 1166.77 471.75, 1167.67 470.17 C 1168.57 468.58, 1169.09 467.77, 1169.53 466.49 C 1169.98 465.20, 1170.05 464.52, 1169.88 463.74 C 1169.70 462.96, 1169.24 462.63, 1168.68 462.58 C 1168.11 462.54, 1167.78 462.83, 1167.06 463.53 C 1166.34 464.23, 1166.08 464.88, 1165.07 466.09 C 1164.07 467.29, 1163.43 468.10, 1162.03 469.55 C 1160.62 470.99, 1159.78 471.84, 1158.05 473.30 C 1156.32 474.76, 1155.30 475.54, 1153.39 476.86 C 1151.48 478.17, 1150.43 478.84, 1148.52 479.89 C 1146.61 480.94, 1145.60 481.41, 1143.85 482.12 C 1142.11 482.82, 1141.23 483.06, 1139.81 483.42 C 1138.38 483.77, 1137.76 483.83, 1136.74 483.90 C 1135.72 483.97, 1135.33 483.94, 1134.73 483.76 C 1134.12 483.58, 1133.93 483.49, 1133.71 483.01 C 1133.49 482.52, 1133.47 482.20, 1133.63 481.33 C 1133.80 480.46, 1134.00 479.86, 1134.53 478.64 C 1135.06 477.42, 1135.50 476.64, 1136.30 475.23 C 1137.10 473.83, 1137.71 473.02, 1138.54 471.61 C 1139.37 470.20, 1139.90 469.42, 1140.43 468.19 C 1140.96 466.96, 1141.10 466.38, 1141.20 465.46 C 1141.31 464.54, 1141.31 464.15, 1140.93 463.58 C 1140.55 463.00, 1139.97 462.68, 1139.30 462.60" style="stroke: black; fill: black;"/><path d="M 1209.71,468.07 C 1210.05 467.40, 1210.03 466.83, 1209.66 466.04 C 1209.30 465.25, 1208.88 464.75, 1207.90 464.10 C 1206.92 463.46, 1206.18 463.10, 1204.77 462.81 C 1203.37 462.52, 1202.53 462.53, 1200.87 462.67 C 1199.21 462.81, 1198.31 462.94, 1196.46 463.49 C 1194.62 464.05, 1193.55 464.45, 1191.65 465.43 C 1189.75 466.41, 1188.70 467.07, 1186.96 468.40 C 1185.21 469.72, 1184.30 470.54, 1182.92 472.06 C 1181.54 473.59, 1180.88 474.44, 1180.06 476.03 C 1179.24 477.61, 1178.94 478.48, 1178.83 480.00 C 1178.72 481.53, 1178.87 482.36, 1179.51 483.64 C 1180.15 484.93, 1180.73 485.59, 1182.03 486.42 C 1183.32 487.25, 1184.24 487.58, 1186.00 487.80 C 1187.76 488.02, 1188.85 487.90, 1190.85 487.53 C 1192.84 487.15, 1193.92 486.77, 1195.98 485.94 C 1198.03 485.11, 1199.14 484.55, 1201.12 483.39 C 1203.10 482.22, 1204.12 481.49, 1205.86 480.13 C 1207.60 478.77, 1208.44 477.96, 1209.82 476.58 C 1211.20 475.19, 1211.97 474.50, 1212.74 473.21 C 1213.51 471.91, 1213.81 471.08, 1213.68 470.09 C 1213.55 469.09, 1212.99 468.50, 1212.09 468.23 C 1211.19 467.96, 1210.34 468.07, 1209.19 468.75 C 1208.03 469.42, 1207.32 470.14, 1206.31 471.59 C 1205.31 473.05, 1204.90 474.21, 1204.17 476.01 C 1203.43 477.80, 1203.07 478.86, 1202.64 480.59 C 1202.21 482.31, 1202.03 483.14, 1202.02 484.62 C 1202.01 486.10, 1202.09 486.79, 1202.58 487.99 C 1203.08 489.19, 1203.51 489.82, 1204.49 490.62 C 1205.48 491.42, 1206.32 491.81, 1207.51 492.01 C 1208.71 492.20, 1209.55 492.08, 1210.45 491.61 C 1211.35 491.13, 1211.83 490.43, 1212.01 489.63 C 1212.19 488.83, 1211.86 488.18, 1211.35 487.61 C 1210.84 487.04, 1210.20 486.91, 1209.48 486.76 C 1208.77 486.61, 1208.39 486.73, 1207.78 486.84 C 1207.18 486.94, 1206.82 487.27, 1206.46 487.28 C 1206.10 487.30, 1206.02 487.31, 1205.99 486.89 C 1205.97 486.48, 1206.03 486.12, 1206.34 485.22 C 1206.66 484.32, 1206.91 483.68, 1207.58 482.39 C 1208.25 481.11, 1208.79 480.25, 1209.70 478.79 C 1210.60 477.33, 1211.37 476.51, 1212.10 475.10 C 1212.83 473.68, 1213.19 472.88, 1213.34 471.72 C 1213.50 470.57, 1213.32 469.92, 1212.88 469.32 C 1212.44 468.71, 1211.93 468.53, 1211.15 468.71 C 1210.38 468.89, 1209.98 469.36, 1209.02 470.21 C 1208.06 471.06, 1207.61 471.81, 1206.35 472.96 C 1205.08 474.12, 1204.29 474.81, 1202.71 475.96 C 1201.13 477.12, 1200.20 477.75, 1198.45 478.72 C 1196.70 479.69, 1195.70 480.16, 1193.96 480.83 C 1192.22 481.49, 1191.29 481.72, 1189.75 482.06 C 1188.21 482.40, 1187.42 482.43, 1186.25 482.51 C 1185.08 482.60, 1184.60 482.58, 1183.90 482.46 C 1183.20 482.35, 1182.98 482.30, 1182.74 481.94 C 1182.51 481.57, 1182.49 481.34, 1182.74 480.65 C 1183.00 479.95, 1183.25 479.46, 1184.02 478.46 C 1184.79 477.47, 1185.37 476.80, 1186.60 475.67 C 1187.83 474.53, 1188.65 473.84, 1190.16 472.79 C 1191.68 471.73, 1192.60 471.19, 1194.19 470.39 C 1195.77 469.59, 1196.67 469.24, 1198.11 468.77 C 1199.55 468.29, 1200.28 468.16, 1201.40 468.02 C 1202.52 467.88, 1202.96 467.93, 1203.72 468.07 C 1204.49 468.22, 1204.66 468.51, 1205.21 468.75 C 1205.75 468.99, 1205.90 469.14, 1206.46 469.26 C 1207.01 469.39, 1207.34 469.59, 1207.99 469.36 C 1208.64 469.12, 1209.38 468.73, 1209.71 468.07" style="stroke: black; fill: black;"/><path d="M 1246.48,439.04 C 1245.79 439.07, 1245.48 439.27, 1244.62 440.05 C 1243.76 440.82, 1243.24 441.34, 1242.19 442.90 C 1241.14 444.45, 1240.56 445.57, 1239.38 447.82 C 1238.20 450.07, 1237.61 451.53, 1236.28 454.15 C 1234.95 456.77, 1234.17 458.25, 1232.74 460.92 C 1231.31 463.58, 1230.41 464.95, 1229.14 467.47 C 1227.87 469.99, 1227.28 471.29, 1226.38 473.52 C 1225.48 475.76, 1225.08 476.80, 1224.63 478.64 C 1224.18 480.49, 1224.04 481.31, 1224.13 482.76 C 1224.23 484.20, 1224.44 484.83, 1225.10 485.87 C 1225.77 486.91, 1226.31 487.42, 1227.47 487.98 C 1228.62 488.53, 1229.58 488.73, 1230.89 488.65 C 1232.20 488.58, 1232.98 488.13, 1233.99 487.61 C 1235.01 487.08, 1235.37 486.69, 1235.98 486.03 C 1236.60 485.37, 1236.86 484.94, 1237.08 484.31 C 1237.29 483.68, 1237.26 483.33, 1237.06 482.88 C 1236.85 482.43, 1236.46 482.27, 1236.06 482.07 C 1235.66 481.86, 1235.55 481.89, 1235.05 481.85 C 1234.54 481.82, 1234.22 481.79, 1233.54 481.89 C 1232.87 481.99, 1232.46 482.08, 1231.68 482.35 C 1230.90 482.62, 1230.32 482.84, 1229.64 483.22 C 1228.96 483.61, 1228.64 484.05, 1228.27 484.27 C 1227.90 484.50, 1227.86 484.62, 1227.78 484.35 C 1227.71 484.09, 1227.69 483.82, 1227.89 482.93 C 1228.09 482.04, 1228.22 481.41, 1228.79 479.91 C 1229.37 478.42, 1229.77 477.47, 1230.74 475.45 C 1231.72 473.43, 1232.40 472.24, 1233.69 469.83 C 1234.97 467.41, 1235.70 465.98, 1237.18 463.38 C 1238.67 460.78, 1239.60 459.36, 1241.12 456.83 C 1242.64 454.30, 1243.54 452.98, 1244.78 450.74 C 1246.03 448.50, 1246.63 447.39, 1247.34 445.64 C 1248.05 443.89, 1248.18 443.15, 1248.34 442.00 C 1248.49 440.85, 1248.47 440.48, 1248.10 439.89 C 1247.73 439.29, 1247.18 439.01, 1246.48 439.04" style="stroke: black; fill: black;"/><path d="M 1259.73,464.58 C 1259.04 464.59, 1258.80 464.79, 1258.03 465.38 C 1257.25 465.97, 1256.73 466.38, 1255.86 467.54 C 1254.99 468.69, 1254.51 469.60, 1253.67 471.16 C 1252.82 472.72, 1252.39 473.71, 1251.64 475.33 C 1250.88 476.95, 1250.43 477.83, 1249.88 479.26 C 1249.32 480.69, 1249.12 481.43, 1248.88 482.49 C 1248.64 483.56, 1248.57 483.94, 1248.67 484.59 C 1248.76 485.24, 1249.09 485.47, 1249.37 485.75 C 1249.64 486.02, 1249.86 485.92, 1250.03 485.95 C 1250.19 485.98, 1250.02 485.89, 1250.17 485.90 C 1250.33 485.91, 1250.47 486.06, 1250.80 486.00 C 1251.13 485.93, 1251.42 485.94, 1251.83 485.56 C 1252.24 485.18, 1252.35 484.92, 1252.87 484.11 C 1253.38 483.29, 1253.67 482.70, 1254.42 481.50 C 1255.17 480.29, 1255.67 479.52, 1256.61 478.07 C 1257.54 476.62, 1258.19 475.75, 1259.09 474.25 C 1259.99 472.74, 1260.53 471.89, 1261.10 470.52 C 1261.66 469.16, 1261.85 468.45, 1261.92 467.41 C 1262.00 466.37, 1261.91 465.90, 1261.47 465.33 C 1261.03 464.77, 1260.41 464.57, 1259.73 464.58" style="stroke: black; fill: black;"/><path d="M 1270.95,442.97 C 1271.66 443.14, 1272.07 443.37, 1272.08 443.37 C 1272.09 443.36, 1271.64 443.28, 1270.98 442.95 C 1270.32 442.61, 1269.50 441.95, 1268.80 441.69 C 1268.09 441.44, 1267.52 441.51, 1267.46 441.68 C 1267.40 441.85, 1267.81 442.28, 1268.51 442.54 C 1269.21 442.80, 1270.23 442.81, 1270.95 442.97" style="stroke: black; fill: black;"/><path d="M 1286.84,462.39 C 1287.25 462.92, 1287.55 463.00, 1288.23 463.23 C 1288.91 463.45, 1289.33 463.50, 1290.24 463.53 C 1291.15 463.55, 1291.73 463.42, 1292.80 463.37 C 1293.87 463.31, 1294.55 463.22, 1295.59 463.23 C 1296.62 463.24, 1297.20 463.29, 1297.99 463.41 C 1298.79 463.52, 1299.15 463.61, 1299.56 463.80 C 1299.97 464.00, 1300.09 464.02, 1300.06 464.39 C 1300.03 464.76, 1299.92 464.93, 1299.40 465.65 C 1298.88 466.37, 1298.50 466.85, 1297.44 467.99 C 1296.38 469.12, 1295.65 469.89, 1294.10 471.33 C 1292.55 472.76, 1291.52 473.63, 1289.70 475.18 C 1287.87 476.73, 1286.76 477.58, 1284.98 479.07 C 1283.20 480.57, 1282.22 481.32, 1280.80 482.67 C 1279.37 484.02, 1278.70 484.62, 1277.86 485.83 C 1277.03 487.04, 1276.77 487.60, 1276.62 488.73 C 1276.47 489.86, 1276.62 490.49, 1277.12 491.49 C 1277.63 492.49, 1278.11 493.05, 1279.15 493.73 C 1280.19 494.41, 1280.90 494.60, 1282.30 494.90 C 1283.70 495.20, 1284.53 495.16, 1286.15 495.22 C 1287.76 495.29, 1288.68 495.25, 1290.36 495.22 C 1292.04 495.18, 1292.94 495.12, 1294.55 495.03 C 1296.15 494.95, 1296.97 494.89, 1298.40 494.78 C 1299.82 494.68, 1300.51 494.65, 1301.67 494.50 C 1302.82 494.36, 1303.38 494.32, 1304.17 494.05 C 1304.97 493.78, 1305.22 493.52, 1305.64 493.15 C 1306.05 492.77, 1306.17 492.60, 1306.24 492.18 C 1306.31 491.77, 1306.18 491.42, 1305.97 491.07 C 1305.76 490.72, 1305.64 490.68, 1305.20 490.44 C 1304.76 490.20, 1304.54 490.02, 1303.78 489.89 C 1303.01 489.77, 1302.50 489.83, 1301.39 489.82 C 1300.28 489.81, 1299.60 489.84, 1298.22 489.83 C 1296.83 489.83, 1296.01 489.83, 1294.45 489.81 C 1292.89 489.78, 1292.01 489.77, 1290.41 489.70 C 1288.82 489.63, 1287.94 489.56, 1286.47 489.45 C 1285.01 489.34, 1284.26 489.20, 1283.10 489.14 C 1281.94 489.09, 1281.42 489.08, 1280.68 489.17 C 1279.93 489.25, 1279.64 489.48, 1279.37 489.57 C 1279.10 489.66, 1279.04 489.82, 1279.33 489.63 C 1279.62 489.45, 1279.91 489.28, 1280.83 488.64 C 1281.75 488.00, 1282.42 487.50, 1283.92 486.43 C 1285.41 485.37, 1286.41 484.68, 1288.29 483.32 C 1290.17 481.96, 1291.35 481.17, 1293.32 479.63 C 1295.29 478.09, 1296.44 477.24, 1298.14 475.61 C 1299.85 473.99, 1300.71 473.11, 1301.84 471.49 C 1302.98 469.87, 1303.39 469.03, 1303.81 467.49 C 1304.23 465.96, 1304.22 465.15, 1303.94 463.81 C 1303.65 462.47, 1303.25 461.79, 1302.39 460.79 C 1301.53 459.79, 1300.85 459.42, 1299.63 458.82 C 1298.42 458.21, 1297.68 458.08, 1296.30 457.77 C 1294.92 457.46, 1294.12 457.30, 1292.73 457.27 C 1291.35 457.24, 1290.52 457.28, 1289.38 457.61 C 1288.24 457.94, 1287.68 458.31, 1287.04 458.90 C 1286.40 459.50, 1286.21 459.87, 1286.17 460.57 C 1286.13 461.27, 1286.42 461.86, 1286.84 462.39" style="stroke: black; fill: black;"/><path d="M 1293.67,475.17 C 1294.03 475.71, 1294.29 475.80, 1294.97 476.03 C 1295.65 476.25, 1296.03 476.24, 1297.08 476.31 C 1298.12 476.38, 1298.83 476.83, 1300.21 476.38 C 1301.59 475.93, 1303.29 475.18, 1303.96 474.07 C 1304.64 472.97, 1304.52 471.78, 1303.58 470.87 C 1302.63 469.97, 1300.76 469.58, 1299.24 469.54 C 1297.73 469.50, 1297.06 470.21, 1296.00 470.68 C 1294.95 471.15, 1294.53 471.37, 1293.96 471.90 C 1293.39 472.44, 1293.21 472.69, 1293.15 473.35 C 1293.10 474.00, 1293.30 474.64, 1293.67 475.17" style="stroke: black; fill: black;"/><path d="M 1330.62,473.82 C 1331.01 474.38, 1331.36 474.52, 1332.18 474.72 C 1333.01 474.92, 1333.55 474.99, 1334.74 474.83 C 1335.94 474.66, 1336.73 474.40, 1338.17 473.90 C 1339.61 473.39, 1340.44 472.99, 1341.96 472.29 C 1343.48 471.60, 1344.33 471.20, 1345.76 470.42 C 1347.20 469.64, 1347.97 469.25, 1349.14 468.39 C 1350.31 467.52, 1350.91 467.10, 1351.63 466.09 C 1352.35 465.08, 1352.66 464.48, 1352.74 463.33 C 1352.82 462.19, 1352.72 461.40, 1352.04 460.36 C 1351.36 459.33, 1350.74 458.73, 1349.35 458.15 C 1347.96 457.58, 1346.98 457.45, 1345.07 457.50 C 1343.16 457.56, 1342.01 457.79, 1339.80 458.42 C 1337.58 459.04, 1336.29 459.54, 1334.00 460.63 C 1331.71 461.71, 1330.43 462.42, 1328.34 463.85 C 1326.24 465.29, 1325.15 466.14, 1323.50 467.79 C 1321.85 469.45, 1321.08 470.36, 1320.08 472.14 C 1319.08 473.93, 1318.71 474.90, 1318.50 476.71 C 1318.29 478.52, 1318.40 479.53, 1319.04 481.20 C 1319.69 482.88, 1320.28 483.73, 1321.72 485.07 C 1323.16 486.40, 1324.15 487.01, 1326.24 487.88 C 1328.33 488.75, 1329.64 489.03, 1332.18 489.41 C 1334.73 489.79, 1336.17 489.81, 1338.97 489.79 C 1341.77 489.77, 1343.31 489.65, 1346.17 489.32 C 1349.04 488.99, 1350.59 488.75, 1353.29 488.14 C 1356.00 487.53, 1357.50 487.12, 1359.70 486.27 C 1361.89 485.42, 1362.89 484.85, 1364.28 483.90 C 1365.67 482.95, 1366.31 482.29, 1366.64 481.53 C 1366.97 480.77, 1366.69 480.33, 1365.94 480.12 C 1365.18 479.91, 1364.40 480.20, 1362.86 480.48 C 1361.31 480.75, 1360.34 481.00, 1358.20 481.51 C 1356.07 482.01, 1354.72 482.51, 1352.20 483.01 C 1349.68 483.51, 1348.25 483.74, 1345.60 484.00 C 1342.95 484.27, 1341.49 484.33, 1338.95 484.33 C 1336.42 484.32, 1335.12 484.26, 1332.94 483.98 C 1330.77 483.70, 1329.72 483.44, 1328.07 482.93 C 1326.42 482.41, 1325.73 482.07, 1324.69 481.40 C 1323.64 480.73, 1323.27 480.39, 1322.84 479.57 C 1322.41 478.75, 1322.33 478.30, 1322.54 477.30 C 1322.74 476.30, 1323.00 475.72, 1323.87 474.55 C 1324.74 473.39, 1325.41 472.70, 1326.89 471.46 C 1328.37 470.23, 1329.36 469.53, 1331.26 468.39 C 1333.15 467.26, 1334.32 466.67, 1336.35 465.79 C 1338.37 464.92, 1339.53 464.53, 1341.36 464.03 C 1343.19 463.52, 1344.11 463.45, 1345.49 463.27 C 1346.86 463.08, 1347.42 463.19, 1348.24 463.11 C 1349.06 463.03, 1349.30 462.97, 1349.59 462.88 C 1349.88 462.78, 1349.87 462.62, 1349.69 462.66 C 1349.51 462.70, 1349.32 462.78, 1348.69 463.09 C 1348.07 463.39, 1347.61 463.68, 1346.56 464.18 C 1345.51 464.69, 1344.78 465.03, 1343.44 465.59 C 1342.09 466.15, 1341.26 466.49, 1339.81 467.00 C 1338.36 467.50, 1337.54 467.69, 1336.20 468.13 C 1334.86 468.58, 1334.12 468.75, 1333.12 469.22 C 1332.11 469.70, 1331.74 469.97, 1331.17 470.51 C 1330.59 471.05, 1330.34 471.25, 1330.24 471.92 C 1330.13 472.58, 1330.23 473.26, 1330.62 473.82" style="stroke: black; fill: black;"/><path d="M 1377.99,467.18 C 1377.31 467.19, 1377.06 467.39, 1376.37 467.92 C 1375.67 468.46, 1375.25 468.82, 1374.51 469.86 C 1373.76 470.90, 1373.37 471.71, 1372.64 473.11 C 1371.91 474.51, 1371.56 475.41, 1370.86 476.88 C 1370.15 478.34, 1369.69 479.14, 1369.12 480.44 C 1368.54 481.74, 1368.10 482.35, 1367.98 483.37 C 1367.86 484.39, 1368.00 484.93, 1368.51 485.54 C 1369.03 486.15, 1369.66 486.44, 1370.55 486.41 C 1371.44 486.37, 1372.05 486.16, 1372.97 485.38 C 1373.89 484.59, 1374.24 483.85, 1375.14 482.49 C 1376.05 481.14, 1376.38 480.16, 1377.51 478.61 C 1378.64 477.06, 1379.33 476.20, 1380.79 474.75 C 1382.25 473.29, 1383.13 472.55, 1384.81 471.31 C 1386.50 470.07, 1387.47 469.49, 1389.24 468.55 C 1391.00 467.60, 1391.94 467.19, 1393.63 466.59 C 1395.32 465.98, 1396.17 465.77, 1397.68 465.52 C 1399.18 465.27, 1399.85 465.36, 1401.15 465.34 C 1402.45 465.31, 1403.12 465.50, 1404.18 465.41 C 1405.25 465.33, 1405.94 465.34, 1406.49 464.89 C 1407.04 464.45, 1407.25 463.86, 1406.93 463.20 C 1406.62 462.53, 1406.04 462.05, 1404.92 461.55 C 1403.80 461.04, 1402.91 460.80, 1401.32 460.67 C 1399.73 460.54, 1398.82 460.65, 1396.97 460.91 C 1395.13 461.17, 1394.10 461.35, 1392.09 461.97 C 1390.09 462.60, 1388.99 463.04, 1386.93 464.05 C 1384.87 465.06, 1383.78 465.70, 1381.80 467.04 C 1379.83 468.39, 1378.82 469.20, 1377.06 470.77 C 1375.30 472.35, 1374.46 473.28, 1372.99 474.90 C 1371.53 476.51, 1370.73 477.36, 1369.72 478.85 C 1368.72 480.35, 1368.27 481.14, 1367.98 482.36 C 1367.69 483.59, 1367.86 484.23, 1368.26 484.99 C 1368.66 485.74, 1369.25 486.06, 1369.98 486.15 C 1370.71 486.24, 1371.17 486.06, 1371.91 485.43 C 1372.66 484.80, 1372.91 484.15, 1373.71 483.00 C 1374.50 481.85, 1375.00 481.06, 1375.88 479.67 C 1376.76 478.28, 1377.33 477.46, 1378.11 476.05 C 1378.90 474.63, 1379.36 473.85, 1379.80 472.60 C 1380.24 471.34, 1380.33 470.71, 1380.32 469.77 C 1380.31 468.83, 1380.23 468.43, 1379.76 467.91 C 1379.30 467.39, 1378.67 467.18, 1377.99 467.18" style="stroke: black; fill: black;"/></svg>