<svg xmlns="http://www.w3.org/2000/svg" id="canvas" viewBox="288.144 370.054 1279.299 228.295"><path d="M 327.93,402.75 C 327.54 403.32, 327.44 403.85, 327.25 405.56 C 327.06 407.28, 326.94 408.41, 326.98 411.33 C 327.01 414.26, 327.34 416.11, 327.43 420.20 C 327.51 424.28, 327.49 426.75, 327.40 431.75 C 327.32 436.74, 327.22 439.55, 327.00 445.18 C 326.78 450.80, 326.60 453.88, 326.31 459.87 C 326.01 465.85, 325.82 469.07, 325.52 475.10 C 325.23 481.13, 325.09 484.28, 324.82 490.02 C 324.56 495.75, 324.44 498.65, 324.21 503.77 C 323.97 508.88, 323.89 511.38, 323.67 515.60 C 323.45 519.81, 323.26 521.76, 323.12 524.85 C 322.99 527.94, 322.99 529.25, 323.00 531.04 C 323.01 532.83, 323.04 533.12, 323.16 533.81 C 323.27 534.50, 323.46 534.44, 323.58 534.48 C 323.69 534.52, 323.82 534.05, 323.73 534.01 C 323.63 533.97, 323.11 534.13, 323.11 534.29 C 323.11 534.45, 323.40 534.86, 323.71 534.82 C 324.03 534.77, 324.34 534.80, 324.70 534.07 C 325.05 533.35, 325.27 533.02, 325.50 531.19 C 325.73 529.36, 325.79 528.04, 325.85 524.93 C 325.91 521.83, 325.77 519.88, 325.80 515.66 C 325.84 511.44, 325.90 508.95, 326.04 503.84 C 326.19 498.72, 326.29 495.82, 326.52 490.09 C 326.75 484.36, 326.88 481.21, 327.18 475.18 C 327.48 469.16, 327.68 465.94, 328.02 459.96 C 328.35 453.98, 328.55 450.89, 328.87 445.27 C 329.18 439.64, 329.33 436.83, 329.60 431.83 C 329.87 426.82, 330.01 424.35, 330.24 420.24 C 330.47 416.14, 330.75 414.26, 330.73 411.30 C 330.71 408.34, 330.46 407.19, 330.15 405.46 C 329.84 403.74, 329.63 403.22, 329.18 402.68 C 328.74 402.14, 328.31 402.17, 327.93 402.75" style="stroke: black; fill: black;"/><path d="M 291.66,404.74 C 292.16 405.01, 292.54 404.98, 293.78 404.88 C 295.01 404.78, 295.78 404.75, 297.84 404.25 C 299.91 403.75, 301.26 403.31, 304.10 402.38 C 306.94 401.45, 308.62 400.79, 312.04 399.60 C 315.46 398.40, 317.46 397.73, 321.22 396.41 C 324.98 395.09, 327.03 394.37, 330.84 393.00 C 334.65 391.63, 336.66 390.93, 340.27 389.55 C 343.87 388.18, 345.67 387.47, 348.86 386.13 C 352.05 384.78, 353.61 384.13, 356.20 382.82 C 358.80 381.50, 359.96 380.76, 361.84 379.56 C 363.72 378.37, 364.47 377.80, 365.59 376.83 C 366.71 375.86, 366.97 375.34, 367.45 374.69 C 367.92 374.05, 367.93 373.94, 367.95 373.62 C 367.97 373.30, 367.87 373.15, 367.55 373.09 C 367.23 373.03, 367.06 373.01, 366.34 373.32 C 365.63 373.62, 365.20 373.89, 363.98 374.63 C 362.76 375.36, 362.10 375.90, 360.26 376.98 C 358.41 378.06, 357.26 378.70, 354.76 380.03 C 352.26 381.35, 350.83 382.19, 347.75 383.62 C 344.67 385.06, 342.90 385.78, 339.35 387.18 C 335.79 388.58, 333.79 389.28, 329.99 390.62 C 326.20 391.96, 324.15 392.67, 320.37 393.87 C 316.60 395.08, 314.60 395.70, 311.12 396.66 C 307.65 397.61, 305.88 397.88, 303.00 398.64 C 300.12 399.41, 298.74 399.76, 296.73 400.46 C 294.72 401.16, 294.03 401.54, 292.94 402.16 C 291.85 402.77, 291.52 403.02, 291.27 403.53 C 291.01 404.05, 291.16 404.47, 291.66 404.74" style="stroke: black; fill: black;"/><path d="M 371.16,377.25 C 370.75 377.82, 370.62 378.39, 370.40 380.07 C 370.17 381.74, 369.99 382.79, 370.05 385.62 C 370.12 388.45, 370.52 390.22, 370.72 394.19 C 370.93 398.16, 371.01 400.48, 371.07 405.46 C 371.13 410.45, 371.11 413.30, 371.01 419.13 C 370.91 424.96, 370.81 428.22, 370.57 434.61 C 370.33 441.01, 370.15 444.47, 369.80 451.11 C 369.46 457.76, 369.24 461.31, 368.84 467.82 C 368.44 474.33, 368.22 477.76, 367.81 483.67 C 367.39 489.58, 367.18 492.54, 366.77 497.36 C 366.36 502.19, 366.00 504.41, 365.76 507.79 C 365.53 511.17, 365.40 512.56, 365.60 514.26 C 365.80 515.97, 366.17 516.44, 366.77 516.32 C 367.37 516.21, 367.98 515.69, 368.58 513.67 C 369.18 511.66, 369.24 510.00, 369.77 506.26 C 370.30 502.52, 370.41 499.92, 371.23 494.98 C 372.05 490.05, 372.57 486.96, 373.87 481.60 C 375.17 476.23, 375.97 473.19, 377.75 468.17 C 379.52 463.15, 380.64 460.61, 382.74 456.49 C 384.85 452.37, 386.08 450.48, 388.28 447.58 C 390.49 444.69, 391.75 443.65, 393.76 442.01 C 395.77 440.38, 396.69 439.82, 398.34 439.42 C 400.00 439.03, 400.67 439.07, 402.03 440.04 C 403.40 441.01, 403.90 441.83, 405.18 444.28 C 406.46 446.72, 407.32 448.40, 408.44 452.27 C 409.56 456.14, 410.06 458.68, 410.77 463.64 C 411.48 468.61, 411.67 471.65, 412.00 477.09 C 412.32 482.53, 412.36 485.62, 412.40 490.85 C 412.45 496.07, 412.31 498.77, 412.21 503.21 C 412.11 507.65, 411.81 509.78, 411.91 513.06 C 412.02 516.34, 412.23 517.75, 412.73 519.62 C 413.24 521.49, 413.96 521.91, 414.46 522.41 C 414.95 522.91, 415.15 522.74, 415.20 522.12 C 415.26 521.49, 414.86 521.10, 414.73 519.27 C 414.60 517.45, 414.62 516.19, 414.54 512.98 C 414.47 509.77, 414.39 507.66, 414.35 503.23 C 414.31 498.80, 414.43 496.07, 414.35 490.82 C 414.28 485.57, 414.25 482.47, 413.97 476.98 C 413.69 471.49, 413.55 468.44, 412.96 463.36 C 412.37 458.28, 412.00 455.71, 411.01 451.59 C 410.02 447.47, 409.53 445.49, 408.00 442.75 C 406.48 440.01, 405.40 439.03, 403.37 437.89 C 401.35 436.75, 400.14 436.66, 397.87 437.05 C 395.60 437.44, 394.29 438.00, 392.00 439.83 C 389.71 441.67, 388.62 443.06, 386.41 446.21 C 384.20 449.36, 383.03 451.32, 380.94 455.59 C 378.85 459.85, 377.75 462.43, 375.95 467.54 C 374.14 472.64, 373.34 475.70, 371.92 481.10 C 370.50 486.50, 369.92 489.60, 368.86 494.53 C 367.79 499.46, 367.25 502.02, 366.61 505.77 C 365.98 509.51, 365.70 511.15, 365.68 513.23 C 365.66 515.32, 366.13 515.95, 366.52 516.17 C 366.91 516.39, 367.28 515.99, 367.62 514.35 C 367.96 512.70, 368.02 511.33, 368.23 507.95 C 368.43 504.58, 368.41 502.33, 368.65 497.49 C 368.90 492.65, 369.09 489.69, 369.44 483.77 C 369.78 477.86, 369.99 474.43, 370.37 467.91 C 370.75 461.40, 370.96 457.84, 371.33 451.19 C 371.69 444.55, 371.89 441.08, 372.19 434.68 C 372.49 428.28, 372.62 425.02, 372.83 419.18 C 373.05 413.34, 373.11 410.49, 373.26 405.48 C 373.41 400.48, 373.45 398.16, 373.58 394.17 C 373.70 390.18, 373.96 388.37, 373.91 385.54 C 373.85 382.70, 373.58 381.67, 373.28 380.01 C 372.99 378.34, 372.87 377.78, 372.45 377.23 C 372.02 376.68, 371.57 376.68, 371.16 377.25" style="stroke: black; fill: black;"/><path d="M 462.14,452.24 C 462.56 451.81, 462.76 451.25, 462.77 450.29 C 462.78 449.33, 462.75 448.57, 462.19 447.44 C 461.63 446.32, 461.12 445.51, 459.98 444.69 C 458.83 443.87, 458.06 443.47, 456.47 443.35 C 454.89 443.24, 453.94 443.24, 452.04 444.09 C 450.14 444.95, 448.98 445.45, 446.96 447.64 C 444.95 449.82, 444.00 451.39, 441.98 455.02 C 439.97 458.65, 438.80 460.96, 436.88 465.80 C 434.95 470.63, 433.93 473.67, 432.35 479.20 C 430.77 484.72, 430.02 488.01, 428.99 493.43 C 427.96 498.85, 427.57 501.75, 427.20 506.29 C 426.83 510.83, 426.72 512.95, 427.14 516.13 C 427.56 519.31, 428.12 520.58, 429.32 522.18 C 430.52 523.78, 431.44 524.17, 433.14 524.13 C 434.84 524.10, 436.01 523.74, 437.82 522.00 C 439.62 520.26, 440.45 518.84, 442.16 515.46 C 443.87 512.08, 444.65 509.80, 446.38 505.10 C 448.12 500.40, 449.03 497.44, 450.82 491.96 C 452.61 486.49, 453.60 483.18, 455.35 477.72 C 457.09 472.25, 458.00 469.22, 459.56 464.64 C 461.13 460.07, 462.15 457.78, 463.18 454.83 C 464.22 451.89, 464.44 450.71, 464.74 449.93 C 465.03 449.14, 464.68 449.34, 464.67 450.90 C 464.67 452.47, 464.66 454.06, 464.71 457.75 C 464.77 461.44, 464.93 464.20, 464.95 469.35 C 464.97 474.50, 464.92 477.84, 464.82 483.51 C 464.72 489.19, 464.58 492.44, 464.43 497.72 C 464.28 502.99, 464.13 505.68, 464.05 509.88 C 463.97 514.08, 463.74 515.97, 464.04 518.71 C 464.33 521.46, 464.73 522.44, 465.54 523.61 C 466.35 524.78, 466.97 524.97, 468.08 524.54 C 469.19 524.11, 470.02 523.52, 471.10 521.47 C 472.19 519.42, 472.53 517.83, 473.49 514.30 C 474.45 510.76, 474.81 508.42, 475.89 503.79 C 476.97 499.15, 477.59 496.25, 478.89 491.14 C 480.19 486.03, 480.93 483.11, 482.38 478.23 C 483.83 473.35, 484.65 470.78, 486.16 466.74 C 487.67 462.71, 488.58 460.86, 489.92 458.05 C 491.27 455.24, 491.95 454.14, 492.90 452.69 C 493.84 451.24, 494.11 450.72, 494.66 450.81 C 495.20 450.90, 495.15 451.31, 495.63 453.11 C 496.11 454.92, 496.46 456.33, 497.06 459.81 C 497.65 463.30, 498.13 465.75, 498.61 470.54 C 499.10 475.34, 499.28 478.44, 499.49 483.79 C 499.70 489.14, 499.68 492.26, 499.68 497.28 C 499.68 502.30, 499.57 504.90, 499.47 508.88 C 499.37 512.85, 499.06 514.65, 499.18 517.16 C 499.31 519.66, 499.56 520.59, 500.09 521.40 C 500.62 522.21, 501.13 522.23, 501.84 521.21 C 502.54 520.20, 503.09 519.18, 503.63 516.33 C 504.17 513.47, 503.98 511.30, 504.54 506.93 C 505.11 502.56, 505.40 499.69, 506.45 494.48 C 507.50 489.27, 508.23 486.12, 509.80 480.89 C 511.37 475.67, 512.38 472.82, 514.30 468.34 C 516.23 463.87, 517.38 461.73, 519.40 458.54 C 521.43 455.34, 522.66 454.17, 524.45 452.35 C 526.23 450.54, 526.99 449.92, 528.33 449.46 C 529.67 449.01, 530.11 449.05, 531.14 450.08 C 532.17 451.11, 532.47 452.01, 533.47 454.60 C 534.47 457.20, 535.25 459.01, 536.16 463.05 C 537.06 467.10, 537.45 469.77, 538.00 474.81 C 538.55 479.85, 538.67 482.93, 538.90 488.26 C 539.12 493.59, 539.11 496.60, 539.14 501.45 C 539.16 506.31, 539.05 508.73, 539.02 512.54 C 538.98 516.35, 538.77 518.03, 538.96 520.52 C 539.15 523.01, 539.57 523.78, 539.96 524.97 C 540.35 526.16, 540.60 526.20, 540.90 526.47 C 541.20 526.74, 541.33 526.67, 541.47 526.32 C 541.61 525.97, 541.53 525.92, 541.58 524.74 C 541.63 523.55, 541.75 522.84, 541.71 520.39 C 541.68 517.95, 541.50 516.31, 541.40 512.52 C 541.30 508.72, 541.30 506.29, 541.21 501.43 C 541.11 496.56, 541.12 493.55, 540.92 488.18 C 540.72 482.82, 540.64 479.73, 540.22 474.60 C 539.80 469.47, 539.54 466.78, 538.80 462.53 C 538.06 458.28, 537.76 456.20, 536.52 453.34 C 535.28 450.49, 534.34 449.44, 532.60 448.25 C 530.85 447.06, 529.80 446.96, 527.78 447.39 C 525.77 447.82, 524.59 448.41, 522.52 450.40 C 520.46 452.40, 519.47 453.92, 517.46 457.35 C 515.44 460.78, 514.37 462.97, 512.46 467.56 C 510.55 472.16, 509.54 475.03, 507.91 480.32 C 506.29 485.61, 505.56 488.78, 504.32 494.01 C 503.08 499.24, 502.60 502.10, 501.71 506.46 C 500.83 510.81, 500.21 512.89, 499.91 515.78 C 499.60 518.66, 499.93 519.76, 500.19 520.86 C 500.45 521.96, 500.86 522.02, 501.22 521.28 C 501.58 520.53, 501.86 519.63, 501.98 517.15 C 502.10 514.68, 501.87 512.87, 501.82 508.89 C 501.78 504.92, 501.80 502.31, 501.75 497.27 C 501.71 492.24, 501.74 489.11, 501.60 483.72 C 501.47 478.34, 501.37 475.23, 501.08 470.34 C 500.79 465.46, 500.73 462.96, 500.16 459.30 C 499.58 455.65, 499.29 454.04, 498.22 452.06 C 497.16 450.07, 496.27 449.56, 494.84 449.39 C 493.41 449.22, 492.55 449.71, 491.09 451.21 C 489.62 452.71, 488.91 453.94, 487.52 456.90 C 486.12 459.86, 485.51 461.86, 484.10 466.01 C 482.68 470.16, 481.88 472.74, 480.43 477.66 C 478.98 482.57, 478.24 485.50, 476.85 490.60 C 475.46 495.70, 474.79 498.61, 473.49 503.16 C 472.19 507.72, 471.43 509.96, 470.34 513.36 C 469.24 516.77, 468.63 518.16, 468.01 520.18 C 467.40 522.20, 467.47 522.91, 467.27 523.47 C 467.08 524.03, 467.13 523.98, 467.03 522.99 C 466.94 521.99, 466.96 521.10, 466.81 518.48 C 466.65 515.86, 466.35 514.02, 466.27 509.88 C 466.18 505.73, 466.28 503.03, 466.39 497.77 C 466.51 492.50, 466.64 489.24, 466.84 483.57 C 467.04 477.89, 467.23 474.56, 467.40 469.38 C 467.57 464.20, 467.86 461.45, 467.70 457.67 C 467.54 453.88, 467.35 452.17, 466.60 450.46 C 465.84 448.75, 465.08 448.43, 463.92 449.12 C 462.75 449.80, 462.03 450.92, 460.77 453.90 C 459.51 456.88, 459.06 459.36, 457.61 464.01 C 456.17 468.66, 455.30 471.68, 453.57 477.15 C 451.83 482.62, 450.83 485.92, 448.96 491.34 C 447.09 496.76, 446.11 499.71, 444.22 504.25 C 442.33 508.79, 441.24 510.92, 439.51 514.05 C 437.77 517.19, 436.86 518.27, 435.55 519.92 C 434.24 521.57, 433.85 522.08, 432.95 522.32 C 432.05 522.55, 431.69 522.39, 431.04 521.08 C 430.40 519.78, 430.06 518.74, 429.71 515.81 C 429.36 512.88, 429.07 510.84, 429.30 506.43 C 429.53 502.03, 429.88 499.12, 430.86 493.78 C 431.85 488.44, 432.60 485.16, 434.21 479.74 C 435.82 474.31, 436.88 471.30, 438.91 466.64 C 440.93 461.98, 442.19 459.73, 444.34 456.44 C 446.49 453.15, 447.82 452.06, 449.66 450.19 C 451.49 448.31, 452.20 447.81, 453.53 447.05 C 454.85 446.29, 455.42 446.32, 456.27 446.37 C 457.12 446.42, 457.30 446.73, 457.78 447.29 C 458.26 447.84, 458.31 448.40, 458.67 449.16 C 459.02 449.92, 459.16 450.41, 459.57 451.07 C 459.97 451.73, 460.17 452.22, 460.68 452.46 C 461.20 452.69, 461.72 452.68, 462.14 452.24" style="stroke: black; fill: black;"/><path d="M 569.26,405.35 C 568.94 405.86, 568.89 406.10, 568.77 407.80 C 568.65 409.49, 568.57 410.55, 568.66 413.84 C 568.74 417.13, 569.12 419.32, 569.19 424.25 C 569.27 429.18, 569.20 432.33, 569.03 438.49 C 568.86 444.64, 568.67 448.32, 568.35 455.03 C 568.04 461.75, 567.81 465.46, 567.44 472.06 C 567.07 478.66, 566.84 482.08, 566.50 488.05 C 566.16 494.02, 565.97 496.98, 565.73 501.90 C 565.49 506.81, 565.30 509.07, 565.30 512.62 C 565.29 516.17, 565.28 517.60, 565.70 519.65 C 566.13 521.69, 566.57 522.34, 567.44 522.86 C 568.32 523.38, 569.00 523.28, 570.08 522.26 C 571.17 521.25, 571.88 520.36, 572.85 517.79 C 573.83 515.23, 573.93 513.35, 574.94 509.44 C 575.96 505.53, 576.50 503.10, 577.93 498.24 C 579.36 493.38, 580.23 490.45, 582.08 485.15 C 583.94 479.84, 585.06 476.84, 587.21 471.71 C 589.36 466.57, 590.61 463.89, 592.84 459.47 C 595.08 455.05, 596.30 452.92, 598.40 449.60 C 600.49 446.28, 601.73 445.01, 603.31 442.86 C 604.90 440.70, 605.41 439.92, 606.32 438.83 C 607.24 437.74, 607.63 437.83, 607.88 437.42 C 608.12 437.01, 608.10 436.78, 607.55 436.78 C 606.99 436.79, 606.40 436.58, 605.10 437.45 C 603.80 438.32, 602.77 438.93, 601.04 441.13 C 599.31 443.33, 598.45 444.94, 596.46 448.44 C 594.48 451.94, 593.30 454.10, 591.10 458.61 C 588.91 463.12, 587.67 465.82, 585.50 470.99 C 583.33 476.17, 582.21 479.18, 580.26 484.50 C 578.32 489.81, 577.42 492.75, 575.79 497.57 C 574.16 502.38, 573.42 504.79, 572.11 508.58 C 570.79 512.38, 569.98 514.03, 569.21 516.54 C 568.44 519.06, 568.48 520.04, 568.27 521.16 C 568.05 522.28, 568.18 522.50, 568.14 522.14 C 568.09 521.77, 568.14 521.25, 568.04 519.34 C 567.95 517.43, 567.75 516.06, 567.66 512.59 C 567.57 509.11, 567.49 506.85, 567.58 501.96 C 567.67 497.07, 567.83 494.10, 568.11 488.13 C 568.39 482.17, 568.60 478.75, 568.97 472.15 C 569.34 465.54, 569.58 461.83, 569.96 455.11 C 570.34 448.40, 570.56 444.73, 570.88 438.56 C 571.21 432.40, 571.37 429.25, 571.59 424.29 C 571.82 419.34, 572.03 417.12, 572.01 413.78 C 571.99 410.45, 571.81 409.35, 571.49 407.63 C 571.17 405.92, 570.84 405.66, 570.40 405.21 C 569.95 404.75, 569.59 404.83, 569.26 405.35" style="stroke: black; fill: black;"/><path d="M 587.84,471.74 C 587.54 472.70, 587.47 473.97, 587.75 476.28 C 588.04 478.60, 588.43 480.22, 589.24 483.31 C 590.05 486.40, 590.70 488.41, 591.80 491.74 C 592.91 495.07, 593.60 496.78, 594.77 499.96 C 595.94 503.15, 596.54 504.73, 597.65 507.64 C 598.76 510.55, 599.23 512.04, 600.31 514.51 C 601.38 516.99, 601.92 518.12, 603.03 520.03 C 604.15 521.93, 604.71 522.79, 605.89 524.03 C 607.08 525.26, 607.80 525.67, 608.95 526.19 C 610.10 526.71, 610.77 526.71, 611.63 526.64 C 612.49 526.57, 612.96 526.21, 613.24 525.84 C 613.53 525.47, 613.34 525.05, 613.05 524.79 C 612.76 524.52, 612.38 524.70, 611.80 524.51 C 611.23 524.33, 610.93 524.34, 610.17 523.86 C 609.41 523.38, 608.88 523.20, 607.99 522.13 C 607.10 521.06, 606.66 520.31, 605.72 518.53 C 604.78 516.74, 604.35 515.61, 603.31 513.21 C 602.27 510.81, 601.66 509.38, 600.52 506.52 C 599.37 503.67, 598.71 502.09, 597.58 498.94 C 596.46 495.79, 595.86 494.08, 594.89 490.77 C 593.91 487.46, 593.52 485.43, 592.71 482.40 C 591.91 479.37, 591.57 477.79, 590.87 475.61 C 590.18 473.42, 589.84 472.26, 589.23 471.49 C 588.62 470.71, 588.13 470.78, 587.84 471.74" style="stroke: black; fill: black;"/><path d="M 652.74,446.75 C 652.56 446.15, 652.15 445.54, 651.14 445.03 C 650.14 444.51, 649.35 444.20, 647.73 444.17 C 646.11 444.13, 644.99 444.15, 643.05 444.83 C 641.11 445.51, 639.98 446.13, 638.04 447.58 C 636.09 449.02, 635.03 450.00, 633.34 452.05 C 631.64 454.09, 630.72 455.35, 629.56 457.80 C 628.40 460.24, 627.90 461.67, 627.54 464.27 C 627.19 466.87, 627.22 468.28, 627.78 470.80 C 628.33 473.33, 628.90 474.58, 630.32 476.90 C 631.73 479.21, 632.78 480.30, 634.86 482.36 C 636.93 484.43, 638.31 485.32, 640.69 487.23 C 643.06 489.14, 644.44 490.04, 646.73 491.90 C 649.02 493.75, 650.24 494.70, 652.13 496.51 C 654.03 498.31, 654.96 499.18, 656.21 500.93 C 657.45 502.68, 657.91 503.54, 658.36 505.26 C 658.81 506.99, 658.80 507.84, 658.44 509.55 C 658.08 511.26, 657.69 512.12, 656.56 513.81 C 655.43 515.50, 654.59 516.38, 652.79 518.01 C 650.98 519.63, 649.82 520.49, 647.55 521.95 C 645.28 523.41, 643.91 524.15, 641.43 525.29 C 638.95 526.44, 637.55 526.94, 635.15 527.67 C 632.74 528.40, 631.46 528.68, 629.41 528.94 C 627.36 529.20, 626.39 529.21, 624.90 528.98 C 623.41 528.75, 622.91 528.32, 621.97 527.78 C 621.03 527.24, 620.77 526.84, 620.18 526.30 C 619.60 525.75, 619.47 525.21, 619.02 525.05 C 618.58 524.89, 618.11 524.98, 617.97 525.51 C 617.82 526.03, 617.79 526.77, 618.29 527.70 C 618.79 528.62, 619.25 529.30, 620.46 530.14 C 621.68 530.98, 622.49 531.48, 624.35 531.88 C 626.20 532.29, 627.38 532.35, 629.73 532.18 C 632.08 532.00, 633.48 531.74, 636.11 531.01 C 638.75 530.29, 640.23 529.75, 642.91 528.56 C 645.60 527.37, 647.07 526.64, 649.54 525.06 C 652.01 523.48, 653.29 522.56, 655.26 520.66 C 657.24 518.77, 658.17 517.69, 659.41 515.58 C 660.64 513.47, 661.07 512.31, 661.43 510.11 C 661.80 507.90, 661.75 506.74, 661.23 504.55 C 660.70 502.37, 660.16 501.28, 658.81 499.18 C 657.47 497.08, 656.50 496.05, 654.51 494.07 C 652.52 492.09, 651.20 491.17, 648.86 489.27 C 646.53 487.38, 645.14 486.47, 642.84 484.58 C 640.53 482.69, 639.29 481.73, 637.35 479.84 C 635.40 477.95, 634.41 477.06, 633.13 475.11 C 631.84 473.17, 631.36 472.18, 630.90 470.12 C 630.45 468.05, 630.47 466.93, 630.85 464.78 C 631.22 462.64, 631.71 461.46, 632.79 459.40 C 633.86 457.34, 634.72 456.24, 636.23 454.49 C 637.74 452.74, 638.70 451.86, 640.32 450.66 C 641.95 449.46, 642.85 449.02, 644.35 448.47 C 645.86 447.92, 646.64 448.01, 647.83 447.90 C 649.02 447.79, 649.45 447.90, 650.30 447.92 C 651.14 447.94, 651.57 448.25, 652.06 448.02 C 652.55 447.78, 652.93 447.34, 652.74 446.75" style="stroke: black; fill: black;"/><path d="M 772.00,411.48 C 772.51 411.12, 772.77 410.57, 773.12 409.51 C 773.47 408.44, 773.66 407.72, 773.76 406.16 C 773.85 404.59, 773.85 403.50, 773.57 401.70 C 773.29 399.91, 773.05 398.89, 772.36 397.19 C 771.68 395.49, 771.27 394.57, 770.14 393.21 C 769.02 391.84, 768.30 391.11, 766.73 390.37 C 765.16 389.64, 764.19 389.37, 762.31 389.54 C 760.43 389.71, 759.33 389.95, 757.33 391.21 C 755.32 392.47, 754.20 393.32, 752.30 395.84 C 750.40 398.37, 749.55 400.01, 747.83 403.85 C 746.10 407.70, 745.22 409.95, 743.69 415.07 C 742.16 420.20, 741.39 423.18, 740.18 429.48 C 738.97 435.78, 738.41 439.41, 737.62 446.57 C 736.83 453.74, 736.55 457.72, 736.22 465.31 C 735.90 472.91, 735.90 476.99, 735.98 484.56 C 736.07 492.14, 736.24 496.07, 736.64 503.20 C 737.03 510.34, 737.35 513.89, 737.95 520.23 C 738.54 526.56, 738.93 529.61, 739.60 534.88 C 740.27 540.16, 740.69 542.57, 741.31 546.62 C 741.92 550.67, 742.09 552.45, 742.69 555.15 C 743.29 557.84, 743.73 558.69, 744.29 560.11 C 744.84 561.53, 745.03 561.76, 745.47 562.23 C 745.91 562.69, 746.20 562.53, 746.46 562.43 C 746.73 562.33, 746.92 561.86, 746.81 561.73 C 746.70 561.59, 746.00 561.65, 745.90 561.75 C 745.79 561.85, 746.10 562.24, 746.27 562.24 C 746.44 562.23, 746.71 562.27, 746.74 561.72 C 746.78 561.17, 746.72 560.92, 746.44 559.48 C 746.17 558.05, 745.99 557.18, 745.38 554.54 C 744.76 551.89, 744.18 550.23, 743.36 546.25 C 742.54 542.27, 742.07 539.88, 741.28 534.65 C 740.49 529.42, 740.07 526.39, 739.41 520.08 C 738.75 513.78, 738.41 510.23, 737.99 503.13 C 737.57 496.02, 737.38 492.10, 737.30 484.55 C 737.22 477.00, 737.22 472.94, 737.57 465.38 C 737.93 457.81, 738.22 453.85, 739.07 446.74 C 739.92 439.63, 740.51 436.02, 741.82 429.81 C 743.13 423.60, 743.96 420.65, 745.62 415.69 C 747.29 410.72, 748.29 408.53, 750.16 404.99 C 752.03 401.44, 753.18 400.14, 754.98 397.95 C 756.78 395.75, 757.64 395.09, 759.18 394.01 C 760.71 392.93, 761.41 392.74, 762.65 392.55 C 763.89 392.36, 764.42 392.54, 765.39 393.07 C 766.37 393.59, 766.82 394.12, 767.53 395.18 C 768.24 396.25, 768.54 396.98, 768.95 398.38 C 769.35 399.79, 769.38 400.67, 769.54 402.23 C 769.70 403.78, 769.64 404.75, 769.74 406.16 C 769.83 407.56, 769.83 408.21, 770.00 409.24 C 770.17 410.27, 770.19 410.85, 770.59 411.29 C 770.99 411.74, 771.50 411.84, 772.00 411.48" style="stroke: black; fill: black;"/><path d="M 719.62,476.75 C 719.97 477.10, 720.17 477.20, 721.14 477.31 C 722.11 477.41, 722.73 477.53, 724.45 477.28 C 726.17 477.04, 727.32 476.80, 729.73 476.07 C 732.14 475.35, 733.62 474.81, 736.52 473.64 C 739.41 472.47, 741.06 471.66, 744.22 470.22 C 747.38 468.77, 749.09 467.93, 752.30 466.41 C 755.51 464.89, 757.20 464.10, 760.27 462.61 C 763.34 461.12, 764.91 460.38, 767.66 458.96 C 770.41 457.55, 771.76 456.86, 774.02 455.54 C 776.28 454.22, 777.31 453.55, 778.96 452.38 C 780.60 451.21, 781.31 450.68, 782.25 449.68 C 783.18 448.67, 783.49 448.19, 783.62 447.37 C 783.76 446.55, 783.57 446.03, 782.92 445.58 C 782.27 445.13, 781.62 444.85, 780.39 445.13 C 779.16 445.40, 778.34 445.72, 776.77 446.94 C 775.19 448.17, 774.21 448.96, 772.52 451.23 C 770.82 453.50, 769.88 454.99, 768.29 458.30 C 766.70 461.60, 765.81 463.67, 764.55 467.76 C 763.29 471.85, 762.72 474.34, 762.00 478.76 C 761.28 483.19, 761.04 485.68, 760.93 489.89 C 760.83 494.09, 760.93 496.27, 761.47 499.79 C 762.01 503.30, 762.44 504.96, 763.62 507.45 C 764.80 509.95, 765.68 510.87, 767.38 512.26 C 769.07 513.64, 770.12 514.06, 772.09 514.36 C 774.07 514.66, 775.21 514.56, 777.25 513.74 C 779.28 512.92, 780.42 512.24, 782.27 510.27 C 784.11 508.30, 784.99 506.93, 786.47 503.90 C 787.96 500.86, 788.59 498.95, 789.69 495.09 C 790.79 491.23, 791.27 488.88, 791.97 484.58 C 792.67 480.28, 792.89 477.79, 793.18 473.58 C 793.48 469.37, 793.48 467.17, 793.43 463.53 C 793.38 459.89, 793.29 458.17, 792.93 455.38 C 792.56 452.59, 792.16 451.47, 791.59 449.57 C 791.02 447.68, 790.64 447.00, 790.07 445.91 C 789.51 444.82, 789.18 444.49, 788.78 444.11 C 788.38 443.73, 788.12 444.00, 788.06 444.01 C 788.00 444.03, 788.45 444.34, 788.49 444.17 C 788.54 443.99, 788.52 443.25, 788.27 443.14 C 788.02 443.03, 787.48 443.25, 787.25 443.61 C 787.02 443.97, 786.99 444.29, 787.11 444.95 C 787.22 445.60, 787.45 445.81, 787.82 446.88 C 788.18 447.95, 788.52 448.50, 788.93 450.28 C 789.35 452.07, 789.52 453.13, 789.89 455.79 C 790.26 458.46, 790.62 460.08, 790.78 463.61 C 790.95 467.13, 790.98 469.31, 790.73 473.42 C 790.47 477.53, 790.23 479.99, 789.50 484.16 C 788.76 488.33, 788.23 490.64, 787.04 494.29 C 785.86 497.94, 785.04 499.68, 783.57 502.41 C 782.11 505.14, 781.21 506.20, 779.69 507.92 C 778.18 509.63, 777.45 510.22, 775.99 510.98 C 774.54 511.75, 773.82 511.88, 772.43 511.74 C 771.05 511.60, 770.30 511.37, 769.06 510.27 C 767.82 509.17, 767.23 508.42, 766.24 506.24 C 765.25 504.05, 764.68 502.61, 764.10 499.35 C 763.53 496.09, 763.30 493.98, 763.36 489.94 C 763.41 485.90, 763.64 483.43, 764.38 479.16 C 765.12 474.89, 765.71 472.45, 767.05 468.57 C 768.39 464.69, 769.35 462.73, 771.07 459.76 C 772.79 456.79, 774.00 455.67, 775.65 453.72 C 777.31 451.76, 778.12 451.14, 779.34 449.99 C 780.57 448.85, 781.11 448.65, 781.77 448.01 C 782.44 447.38, 782.57 447.13, 782.66 446.83 C 782.74 446.54, 782.63 446.38, 782.20 446.53 C 781.76 446.69, 781.46 446.96, 780.47 447.63 C 779.49 448.29, 778.87 448.82, 777.25 449.84 C 775.63 450.86, 774.59 451.46, 772.39 452.74 C 770.18 454.01, 768.90 454.78, 766.22 456.24 C 763.54 457.69, 762.03 458.50, 759.00 460.01 C 755.97 461.52, 754.28 462.31, 751.08 463.78 C 747.87 465.25, 746.14 466.07, 742.98 467.36 C 739.82 468.64, 738.15 469.27, 735.26 470.21 C 732.38 471.15, 730.90 471.41, 728.57 472.05 C 726.23 472.70, 725.16 472.92, 723.57 473.43 C 721.99 473.93, 721.48 474.15, 720.65 474.58 C 719.82 475.01, 719.64 475.14, 719.44 475.57 C 719.23 476.01, 719.28 476.40, 719.62 476.75" style="stroke: black; fill: black;"/><path d="M 811.78,450.09 C 811.38 450.67, 811.31 451.24, 811.11 452.91 C 810.90 454.58, 810.70 455.68, 810.76 458.43 C 810.81 461.19, 811.17 463.03, 811.36 466.68 C 811.56 470.33, 811.66 472.56, 811.74 476.69 C 811.82 480.81, 811.81 483.19, 811.75 487.30 C 811.70 491.40, 811.56 493.71, 811.46 497.22 C 811.37 500.74, 811.15 502.46, 811.29 504.86 C 811.43 507.25, 811.68 508.31, 812.18 509.20 C 812.67 510.08, 813.14 510.17, 813.76 509.28 C 814.39 508.40, 814.92 507.34, 815.29 504.78 C 815.65 502.22, 815.36 500.28, 815.59 496.48 C 815.82 492.67, 815.86 490.14, 816.45 485.75 C 817.04 481.36, 817.51 478.78, 818.55 474.53 C 819.59 470.27, 820.24 468.10, 821.65 464.48 C 823.06 460.87, 823.94 459.19, 825.60 456.46 C 827.26 453.73, 828.20 452.68, 829.96 450.82 C 831.72 448.96, 832.58 448.30, 834.40 447.17 C 836.22 446.04, 837.18 445.71, 839.05 445.16 C 840.92 444.61, 841.89 444.54, 843.77 444.42 C 845.65 444.29, 846.62 444.39, 848.46 444.54 C 850.30 444.70, 851.23 444.94, 852.99 445.19 C 854.74 445.44, 855.79 445.70, 857.23 445.81 C 858.68 445.92, 859.26 445.87, 860.22 445.76 C 861.19 445.64, 861.67 445.55, 862.06 445.25 C 862.44 444.95, 862.45 444.62, 862.14 444.26 C 861.83 443.90, 861.39 443.80, 860.51 443.45 C 859.64 443.11, 859.17 442.88, 857.76 442.53 C 856.36 442.19, 855.31 441.99, 853.49 441.72 C 851.68 441.45, 850.69 441.31, 848.69 441.20 C 846.69 441.09, 845.62 440.98, 843.51 441.18 C 841.39 441.38, 840.27 441.51, 838.13 442.21 C 836.00 442.91, 834.90 443.36, 832.83 444.68 C 830.76 445.99, 829.70 446.72, 827.79 448.80 C 825.88 450.89, 824.98 452.15, 823.30 455.11 C 821.62 458.07, 820.81 459.85, 819.40 463.62 C 817.99 467.39, 817.36 469.61, 816.25 473.95 C 815.15 478.30, 814.68 480.90, 813.88 485.34 C 813.07 489.78, 812.73 492.32, 812.23 496.15 C 811.73 499.99, 811.38 501.91, 811.38 504.50 C 811.38 507.09, 811.77 508.20, 812.21 509.13 C 812.65 510.06, 813.14 510.01, 813.58 509.15 C 814.02 508.30, 814.28 507.24, 814.42 504.86 C 814.56 502.48, 814.30 500.76, 814.28 497.25 C 814.26 493.75, 814.30 491.44, 814.33 487.32 C 814.36 483.21, 814.38 480.82, 814.43 476.68 C 814.48 472.54, 814.51 470.29, 814.57 466.62 C 814.64 462.95, 814.87 461.08, 814.76 458.32 C 814.65 455.55, 814.38 454.45, 814.04 452.79 C 813.70 451.13, 813.52 450.56, 813.07 450.02 C 812.61 449.48, 812.17 449.51, 811.78 450.09" style="stroke: black; fill: black;"/><path d="M 926.72,444.58 C 926.35 444.98, 926.27 445.23, 926.04 446.55 C 925.81 447.86, 925.58 448.68, 925.58 451.13 C 925.57 453.59, 925.85 455.21, 926.01 458.83 C 926.16 462.45, 926.26 464.79, 926.34 469.25 C 926.43 473.71, 926.38 476.41, 926.44 481.11 C 926.50 485.82, 926.48 488.43, 926.64 492.76 C 926.80 497.10, 926.83 499.29, 927.23 502.80 C 927.62 506.31, 927.77 507.92, 928.61 510.33 C 929.45 512.74, 930.05 513.68, 931.42 514.85 C 932.78 516.03, 933.70 516.35, 935.43 516.19 C 937.16 516.02, 938.25 515.63, 940.06 514.05 C 941.86 512.47, 942.73 511.22, 944.46 508.29 C 946.18 505.36, 946.98 503.38, 948.69 499.39 C 950.40 495.41, 951.31 492.91, 953.02 488.35 C 954.74 483.80, 955.61 481.10, 957.25 476.63 C 958.90 472.15, 959.75 469.73, 961.24 465.95 C 962.72 462.18, 963.70 460.29, 964.67 457.74 C 965.63 455.20, 965.77 454.07, 966.06 453.22 C 966.34 452.36, 966.13 452.36, 966.07 453.47 C 966.02 454.58, 965.76 455.65, 965.80 458.78 C 965.83 461.90, 966.18 464.16, 966.25 469.09 C 966.32 474.01, 966.33 477.15, 966.16 483.40 C 965.98 489.65, 965.80 493.29, 965.37 500.34 C 964.94 507.39, 964.66 511.30, 964.00 518.65 C 963.34 525.99, 962.96 529.95, 962.07 537.07 C 961.17 544.20, 960.65 547.86, 959.52 554.28 C 958.39 560.70, 957.75 563.86, 956.42 569.17 C 955.09 574.48, 954.35 576.96, 952.88 580.83 C 951.42 584.70, 950.48 586.19, 949.09 588.53 C 947.69 590.87, 947.10 591.64, 945.90 592.53 C 944.70 593.43, 944.19 593.45, 943.09 593.01 C 942.00 592.58, 941.53 591.96, 940.44 590.37 C 939.35 588.77, 938.75 587.69, 937.64 585.06 C 936.54 582.43, 935.76 580.76, 934.91 577.22 C 934.06 573.67, 933.66 571.51, 933.40 567.33 C 933.14 563.15, 933.17 560.81, 933.62 556.32 C 934.08 551.83, 934.49 549.43, 935.68 544.89 C 936.87 540.35, 937.67 538.01, 939.57 533.61 C 941.46 529.21, 942.64 527.02, 945.13 522.88 C 947.63 518.74, 949.09 516.70, 952.04 512.90 C 955.00 509.11, 956.66 507.28, 959.93 503.91 C 963.19 500.53, 965.00 498.95, 968.38 496.04 C 971.76 493.12, 973.57 491.78, 976.83 489.32 C 980.10 486.85, 981.74 485.73, 984.71 483.72 C 987.68 481.70, 989.16 480.88, 991.67 479.24 C 994.19 477.61, 995.34 476.92, 997.29 475.54 C 999.24 474.17, 1000.05 473.57, 1001.43 472.38 C 1002.81 471.18, 1003.36 470.68, 1004.18 469.56 C 1005.01 468.43, 1005.29 467.90, 1005.58 466.74 C 1005.86 465.58, 1005.90 464.93, 1005.61 463.75 C 1005.32 462.56, 1005.01 461.87, 1004.12 460.84 C 1003.22 459.81, 1002.56 459.23, 1001.14 458.59 C 999.72 457.94, 998.81 457.63, 997.02 457.61 C 995.22 457.59, 994.17 457.67, 992.16 458.50 C 990.16 459.33, 988.98 459.88, 986.97 461.78 C 984.96 463.68, 983.95 464.98, 982.13 467.98 C 980.30 470.98, 979.38 472.90, 977.83 476.79 C 976.29 480.68, 975.49 483.08, 974.40 487.44 C 973.31 491.81, 972.85 494.32, 972.38 498.62 C 971.91 502.91, 971.84 505.18, 972.05 508.90 C 972.27 512.62, 972.50 514.44, 973.45 517.21 C 974.41 519.98, 975.25 521.09, 976.83 522.76 C 978.40 524.42, 979.42 524.99, 981.34 525.52 C 983.26 526.04, 984.41 526.01, 986.41 525.39 C 988.42 524.78, 989.52 524.20, 991.37 522.43 C 993.22 520.66, 994.13 519.42, 995.65 516.55 C 997.16 513.68, 997.80 511.81, 998.94 508.09 C 1000.09 504.37, 1000.58 502.13, 1001.36 497.95 C 1002.14 493.76, 1002.44 491.33, 1002.84 487.15 C 1003.24 482.98, 1003.31 480.77, 1003.36 477.08 C 1003.41 473.39, 1003.38 471.61, 1003.10 468.69 C 1002.82 465.77, 1002.45 464.53, 1001.96 462.47 C 1001.48 460.41, 1001.12 459.63, 1000.69 458.39 C 1000.26 457.15, 999.98 456.79, 999.80 456.27 C 999.62 455.76, 999.52 455.84, 999.77 455.83 C 1000.01 455.82, 1000.24 456.11, 1001.04 456.21 C 1001.85 456.31, 1002.47 456.42, 1003.78 456.34 C 1005.09 456.27, 1005.97 456.11, 1007.61 455.84 C 1009.24 455.56, 1010.21 455.31, 1011.94 454.97 C 1013.68 454.62, 1014.61 454.41, 1016.28 454.10 C 1017.94 453.80, 1018.83 453.64, 1020.27 453.45 C 1021.72 453.27, 1022.45 453.18, 1023.52 453.18 C 1024.58 453.19, 1025.02 453.01, 1025.62 453.48 C 1026.21 453.94, 1026.32 454.14, 1026.49 455.51 C 1026.66 456.88, 1026.49 457.80, 1026.47 460.34 C 1026.44 462.88, 1026.54 464.57, 1026.37 468.22 C 1026.21 471.87, 1026.01 474.22, 1025.64 478.58 C 1025.28 482.95, 1024.95 485.56, 1024.53 490.05 C 1024.11 494.54, 1023.84 496.96, 1023.53 501.05 C 1023.22 505.13, 1023.04 507.15, 1023.00 510.47 C 1022.96 513.79, 1022.99 515.29, 1023.34 517.64 C 1023.70 520.00, 1024.01 520.90, 1024.78 522.25 C 1025.55 523.60, 1026.05 524.09, 1027.20 524.39 C 1028.34 524.69, 1029.15 524.63, 1030.49 523.73 C 1031.84 522.84, 1032.61 522.12, 1033.91 519.93 C 1035.21 517.73, 1035.67 516.18, 1036.98 512.77 C 1038.30 509.36, 1038.99 507.18, 1040.50 502.89 C 1042.01 498.60, 1042.87 495.93, 1044.53 491.30 C 1046.19 486.67, 1047.11 484.02, 1048.80 479.75 C 1050.48 475.47, 1051.43 473.26, 1052.96 469.93 C 1054.49 466.61, 1055.39 465.16, 1056.45 463.11 C 1057.52 461.06, 1057.83 460.33, 1058.29 459.68 C 1058.74 459.03, 1058.69 459.03, 1058.72 459.87 C 1058.74 460.71, 1058.43 461.54, 1058.40 463.89 C 1058.38 466.24, 1058.57 467.98, 1058.59 471.62 C 1058.62 475.25, 1058.63 477.66, 1058.52 482.06 C 1058.40 486.45, 1058.23 489.10, 1058.04 493.58 C 1057.84 498.07, 1057.69 500.49, 1057.55 504.48 C 1057.42 508.47, 1057.26 510.43, 1057.37 513.53 C 1057.48 516.62, 1057.61 517.93, 1058.11 519.97 C 1058.61 522.01, 1058.97 522.79, 1059.89 523.73 C 1060.80 524.68, 1061.48 524.94, 1062.68 524.71 C 1063.88 524.49, 1064.65 524.06, 1065.88 522.61 C 1067.11 521.17, 1067.80 520.10, 1068.85 517.49 C 1069.90 514.88, 1070.18 513.09, 1071.13 509.55 C 1072.09 506.01, 1072.61 503.83, 1073.64 499.78 C 1074.67 495.73, 1075.23 493.38, 1076.29 489.32 C 1077.35 485.25, 1077.87 483.11, 1078.94 479.44 C 1080.00 475.77, 1080.57 473.98, 1081.61 470.96 C 1082.64 467.94, 1083.19 466.60, 1084.11 464.34 C 1085.03 462.08, 1085.43 461.11, 1086.21 459.65 C 1087.00 458.19, 1087.40 457.70, 1088.04 457.03 C 1088.67 456.36, 1088.91 456.25, 1089.39 456.30 C 1089.87 456.36, 1090.00 456.54, 1090.43 457.32 C 1090.86 458.11, 1091.10 458.64, 1091.54 460.22 C 1091.98 461.81, 1092.20 462.81, 1092.62 465.24 C 1093.03 467.67, 1093.33 469.18, 1093.61 472.37 C 1093.90 475.55, 1093.99 477.48, 1094.04 481.19 C 1094.08 484.90, 1093.99 487.01, 1093.84 490.90 C 1093.69 494.79, 1093.56 496.91, 1093.29 500.65 C 1093.03 504.39, 1092.79 506.33, 1092.53 509.59 C 1092.27 512.84, 1092.03 514.49, 1091.99 516.93 C 1091.94 519.38, 1092.00 520.45, 1092.29 521.81 C 1092.57 523.16, 1092.85 523.54, 1093.41 523.71 C 1093.97 523.88, 1094.47 523.68, 1095.09 522.67 C 1095.70 521.67, 1096.06 520.82, 1096.49 518.69 C 1096.92 516.56, 1096.90 515.06, 1097.26 512.01 C 1097.61 508.95, 1097.68 507.01, 1098.24 503.40 C 1098.80 499.78, 1099.19 497.68, 1100.06 493.93 C 1100.92 490.17, 1101.43 488.12, 1102.57 484.61 C 1103.71 481.10, 1104.39 479.36, 1105.76 476.38 C 1107.12 473.39, 1107.89 472.08, 1109.38 469.70 C 1110.88 467.31, 1111.64 466.28, 1113.24 464.45 C 1114.85 462.63, 1115.71 461.89, 1117.41 460.57 C 1119.11 459.26, 1120.00 458.77, 1121.74 457.89 C 1123.48 457.00, 1124.36 456.69, 1126.10 456.16 C 1127.85 455.63, 1128.75 455.50, 1130.47 455.22 C 1132.19 454.94, 1133.08 454.90, 1134.70 454.78 C 1136.31 454.65, 1137.11 454.63, 1138.54 454.59 C 1139.98 454.56, 1140.67 454.64, 1141.88 454.59 C 1143.09 454.53, 1143.73 454.53, 1144.61 454.32 C 1145.49 454.11, 1145.96 453.90, 1146.28 453.52 C 1146.61 453.14, 1146.57 452.78, 1146.24 452.43 C 1145.91 452.08, 1145.48 451.99, 1144.62 451.77 C 1143.76 451.55, 1143.16 451.44, 1141.93 451.34 C 1140.70 451.25, 1139.97 451.30, 1138.48 451.32 C 1136.98 451.34, 1136.16 451.33, 1134.44 451.45 C 1132.73 451.58, 1131.78 451.63, 1129.92 451.95 C 1128.06 452.28, 1127.06 452.45, 1125.13 453.08 C 1123.21 453.70, 1122.22 454.06, 1120.29 455.07 C 1118.36 456.07, 1117.36 456.63, 1115.48 458.10 C 1113.60 459.57, 1112.64 460.41, 1110.90 462.41 C 1109.16 464.41, 1108.32 465.54, 1106.79 468.11 C 1105.25 470.67, 1104.56 472.11, 1103.21 475.25 C 1101.86 478.39, 1101.20 480.19, 1100.04 483.79 C 1098.88 487.40, 1098.37 489.48, 1097.41 493.29 C 1096.45 497.09, 1096.04 499.20, 1095.23 502.83 C 1094.42 506.46, 1093.93 508.36, 1093.37 511.43 C 1092.81 514.49, 1092.55 515.99, 1092.42 518.15 C 1092.29 520.32, 1092.45 521.19, 1092.71 522.26 C 1092.97 523.33, 1093.32 523.61, 1093.70 523.52 C 1094.08 523.43, 1094.34 523.10, 1094.63 521.81 C 1094.92 520.52, 1094.99 519.48, 1095.15 517.07 C 1095.32 514.67, 1095.31 513.03, 1095.47 509.78 C 1095.63 506.53, 1095.75 504.57, 1095.96 500.82 C 1096.17 497.06, 1096.31 494.94, 1096.50 491.01 C 1096.70 487.09, 1096.83 484.98, 1096.93 481.21 C 1097.03 477.44, 1097.09 475.49, 1097.01 472.17 C 1096.92 468.85, 1096.92 467.25, 1096.51 464.61 C 1096.11 461.97, 1095.77 460.81, 1094.98 458.98 C 1094.19 457.15, 1093.65 456.41, 1092.56 455.46 C 1091.46 454.50, 1090.73 454.27, 1089.52 454.22 C 1088.32 454.17, 1087.66 454.41, 1086.53 455.21 C 1085.39 456.01, 1084.88 456.63, 1083.83 458.23 C 1082.79 459.82, 1082.29 460.81, 1081.31 463.19 C 1080.32 465.56, 1079.89 466.97, 1078.93 470.09 C 1077.97 473.20, 1077.50 475.04, 1076.49 478.76 C 1075.49 482.48, 1074.97 484.62, 1073.88 488.68 C 1072.80 492.75, 1072.22 495.09, 1071.06 499.08 C 1069.90 503.06, 1069.29 505.22, 1068.09 508.60 C 1066.89 511.98, 1066.06 513.52, 1065.07 515.97 C 1064.07 518.42, 1063.73 519.43, 1063.13 520.85 C 1062.53 522.28, 1062.41 522.73, 1062.06 523.10 C 1061.71 523.46, 1061.65 523.40, 1061.39 522.68 C 1061.12 521.95, 1060.96 521.33, 1060.74 519.48 C 1060.51 517.63, 1060.40 516.40, 1060.26 513.41 C 1060.12 510.42, 1060.00 508.48, 1060.04 504.54 C 1060.07 500.59, 1060.21 498.16, 1060.44 493.69 C 1060.67 489.22, 1060.87 486.58, 1061.16 482.18 C 1061.46 477.78, 1061.75 475.39, 1061.92 471.69 C 1062.10 467.98, 1062.36 466.18, 1062.03 463.66 C 1061.70 461.14, 1061.19 460.14, 1060.27 459.09 C 1059.35 458.05, 1058.66 457.90, 1057.42 458.42 C 1056.17 458.95, 1055.40 459.61, 1054.05 461.71 C 1052.69 463.81, 1052.11 465.46, 1050.65 468.91 C 1049.18 472.36, 1048.36 474.62, 1046.71 478.94 C 1045.07 483.26, 1044.14 485.92, 1042.43 490.53 C 1040.71 495.14, 1039.81 497.80, 1038.13 502.00 C 1036.45 506.19, 1035.53 508.29, 1034.03 511.51 C 1032.52 514.72, 1031.67 516.02, 1030.59 518.07 C 1029.52 520.13, 1029.25 520.84, 1028.65 521.80 C 1028.05 522.75, 1027.95 522.93, 1027.59 522.85 C 1027.22 522.76, 1027.12 522.48, 1026.83 521.37 C 1026.55 520.26, 1026.39 519.47, 1026.17 517.29 C 1025.96 515.11, 1025.80 513.68, 1025.76 510.47 C 1025.72 507.25, 1025.73 505.24, 1025.95 501.20 C 1026.18 497.17, 1026.44 494.75, 1026.90 490.28 C 1027.35 485.81, 1027.70 483.21, 1028.22 478.84 C 1028.74 474.48, 1029.08 472.17, 1029.49 468.47 C 1029.91 464.77, 1030.30 463.09, 1030.29 460.35 C 1030.28 457.61, 1030.06 456.52, 1029.44 454.76 C 1028.82 453.00, 1028.29 452.45, 1027.18 451.54 C 1026.06 450.63, 1025.31 450.52, 1023.87 450.22 C 1022.44 449.93, 1021.63 450.00, 1020.00 450.06 C 1018.37 450.12, 1017.47 450.31, 1015.73 450.53 C 1013.98 450.75, 1013.04 450.92, 1011.29 451.17 C 1009.55 451.42, 1008.59 451.56, 1006.98 451.78 C 1005.37 452.01, 1004.56 452.04, 1003.26 452.31 C 1001.95 452.57, 1001.37 452.66, 1000.44 453.10 C 999.51 453.54, 999.11 453.84, 998.59 454.50 C 998.07 455.17, 997.93 455.52, 997.86 456.43 C 997.79 457.34, 997.97 457.73, 998.23 459.06 C 998.49 460.39, 998.81 461.07, 999.18 463.06 C 999.55 465.04, 999.76 466.20, 1000.07 469.00 C 1000.38 471.81, 1000.67 473.50, 1000.72 477.08 C 1000.78 480.66, 1000.74 482.84, 1000.36 486.92 C 999.98 490.99, 999.67 493.40, 998.84 497.45 C 998.01 501.51, 997.45 503.70, 996.22 507.19 C 994.98 510.69, 994.11 512.35, 992.66 514.92 C 991.21 517.49, 990.41 518.50, 988.97 520.04 C 987.52 521.59, 986.83 522.07, 985.44 522.66 C 984.05 523.26, 983.33 523.36, 982.00 523.03 C 980.67 522.69, 979.93 522.34, 978.79 520.98 C 977.64 519.63, 977.09 518.70, 976.26 516.25 C 975.43 513.80, 974.93 512.20, 974.64 508.72 C 974.34 505.24, 974.34 503.00, 974.77 498.87 C 975.19 494.73, 975.65 492.26, 976.76 488.05 C 977.87 483.84, 978.69 481.49, 980.30 477.82 C 981.91 474.15, 982.96 472.38, 984.79 469.70 C 986.62 467.02, 987.70 466.04, 989.44 464.43 C 991.19 462.82, 992.02 462.33, 993.52 461.65 C 995.03 460.97, 995.73 460.99, 996.96 461.02 C 998.19 461.05, 998.72 461.38, 999.66 461.81 C 1000.61 462.25, 1001.03 462.63, 1001.69 463.20 C 1002.34 463.76, 1002.64 464.04, 1002.94 464.63 C 1003.24 465.22, 1003.33 465.50, 1003.17 466.16 C 1003.01 466.82, 1002.86 467.13, 1002.15 467.94 C 1001.44 468.75, 1000.95 469.17, 999.63 470.19 C 998.31 471.22, 997.49 471.75, 995.57 473.07 C 993.65 474.39, 992.50 475.08, 990.03 476.80 C 987.57 478.51, 986.17 479.50, 983.25 481.65 C 980.33 483.79, 978.69 484.96, 975.44 487.52 C 972.19 490.07, 970.39 491.45, 966.99 494.44 C 963.59 497.44, 961.77 499.05, 958.47 502.50 C 955.16 505.95, 953.48 507.81, 950.48 511.68 C 947.47 515.56, 945.99 517.63, 943.44 521.86 C 940.89 526.08, 939.67 528.32, 937.72 532.82 C 935.77 537.31, 934.93 539.70, 933.67 544.35 C 932.41 549.00, 931.96 551.46, 931.42 556.07 C 930.87 560.69, 930.80 563.09, 930.93 567.44 C 931.05 571.78, 931.37 574.01, 932.05 577.81 C 932.74 581.61, 933.16 583.51, 934.35 586.42 C 935.53 589.34, 936.35 590.63, 937.98 592.37 C 939.61 594.12, 940.66 594.75, 942.49 595.15 C 944.31 595.54, 945.33 595.40, 947.10 594.35 C 948.87 593.29, 949.80 592.44, 951.33 589.87 C 952.87 587.30, 953.44 585.56, 954.78 581.50 C 956.12 577.44, 956.79 574.95, 958.03 569.56 C 959.26 564.16, 959.88 560.99, 960.96 554.53 C 962.04 548.07, 962.55 544.40, 963.44 537.25 C 964.32 530.10, 964.70 526.14, 965.39 518.78 C 966.08 511.41, 966.37 507.50, 966.89 500.44 C 967.41 493.38, 967.62 489.74, 967.98 483.48 C 968.34 477.22, 968.49 474.09, 968.71 469.12 C 968.93 464.16, 969.26 461.89, 969.06 458.65 C 968.86 455.42, 968.52 454.23, 967.71 452.95 C 966.90 451.68, 966.18 451.54, 965.01 452.26 C 963.85 452.98, 963.08 453.99, 961.87 456.56 C 960.67 459.13, 960.31 461.26, 958.97 465.12 C 957.63 468.98, 956.80 471.39, 955.18 475.87 C 953.56 480.35, 952.67 483.04, 950.88 487.52 C 949.10 492.01, 948.13 494.48, 946.27 498.29 C 944.42 502.09, 943.30 503.86, 941.60 506.55 C 939.90 509.24, 939.09 510.24, 937.77 511.73 C 936.46 513.23, 936.02 513.69, 935.05 514.01 C 934.07 514.33, 933.67 514.23, 932.91 513.32 C 932.16 512.42, 931.88 511.66, 931.26 509.49 C 930.64 507.32, 930.29 505.84, 929.84 502.47 C 929.38 499.11, 929.19 496.94, 928.97 492.66 C 928.76 488.39, 928.77 485.78, 928.76 481.10 C 928.75 476.42, 928.83 473.71, 928.93 469.26 C 929.04 464.80, 929.16 462.45, 929.28 458.82 C 929.40 455.18, 929.62 453.54, 929.53 451.06 C 929.43 448.59, 929.13 447.75, 928.80 446.44 C 928.47 445.13, 928.31 444.88, 927.89 444.51 C 927.48 444.13, 927.09 444.17, 926.72 444.58" style="stroke: black; fill: black;"/><path d="M 1216.73,454.25 C 1216.36 454.69, 1216.32 455.00, 1216.07 456.41 C 1215.81 457.82, 1215.55 458.68, 1215.46 461.31 C 1215.37 463.93, 1215.67 465.68, 1215.63 469.53 C 1215.59 473.38, 1215.51 475.85, 1215.26 480.57 C 1215.01 485.29, 1214.77 488.15, 1214.38 493.13 C 1214.00 498.10, 1213.74 500.87, 1213.34 505.43 C 1212.94 509.99, 1212.67 512.30, 1212.37 515.93 C 1212.08 519.55, 1211.86 521.20, 1211.85 523.57 C 1211.83 525.95, 1212.05 526.64, 1212.30 527.80 C 1212.55 528.97, 1212.72 529.09, 1213.08 529.41 C 1213.45 529.73, 1213.83 529.56, 1214.13 529.39 C 1214.43 529.22, 1214.81 528.76, 1214.59 528.56 C 1214.36 528.36, 1213.26 528.28, 1213.00 528.39 C 1212.74 528.50, 1213.09 528.97, 1213.29 529.12 C 1213.49 529.28, 1213.78 529.46, 1213.99 529.17 C 1214.19 528.89, 1214.20 528.80, 1214.32 527.70 C 1214.45 526.59, 1214.50 525.97, 1214.62 523.65 C 1214.74 521.33, 1214.72 519.70, 1214.90 516.09 C 1215.09 512.49, 1215.21 510.17, 1215.54 505.61 C 1215.87 501.05, 1216.13 498.28, 1216.56 493.30 C 1216.99 488.33, 1217.25 485.47, 1217.68 480.74 C 1218.11 476.02, 1218.34 473.55, 1218.69 469.68 C 1219.03 465.81, 1219.37 464.06, 1219.40 461.39 C 1219.43 458.73, 1219.14 457.81, 1218.84 456.37 C 1218.55 454.93, 1218.35 454.60, 1217.93 454.18 C 1217.51 453.76, 1217.10 453.80, 1216.73 454.25" style="stroke: black; fill: black;"/><path d="M 1221.70,417.50 C 1222.18 417.14, 1222.60 416.71, 1222.60 416.52 C 1222.60 416.32, 1222.07 416.46, 1221.70 416.52 C 1221.33 416.59, 1221.04 416.76, 1220.74 416.82 C 1220.45 416.89, 1220.52 416.73, 1220.22 416.85 C 1219.93 416.96, 1219.56 417.08, 1219.27 417.38 C 1218.99 417.68, 1218.61 418.18, 1218.79 418.36 C 1218.98 418.55, 1219.62 418.49, 1220.20 418.31 C 1220.78 418.14, 1221.22 417.86, 1221.70 417.50" style="stroke: black; fill: black;"/><path d="M 1242.15,455.62 C 1241.77 456.14, 1241.75 456.65, 1241.53 458.15 C 1241.31 459.65, 1241.12 460.57, 1241.07 463.11 C 1241.02 465.65, 1241.25 467.34, 1241.29 470.85 C 1241.32 474.37, 1241.38 476.53, 1241.24 480.69 C 1241.11 484.84, 1240.91 487.28, 1240.60 491.64 C 1240.28 495.99, 1240.06 498.40, 1239.67 502.46 C 1239.28 506.53, 1238.94 508.65, 1238.66 511.97 C 1238.37 515.29, 1238.11 516.88, 1238.25 519.07 C 1238.39 521.27, 1238.68 522.13, 1239.34 522.94 C 1240.00 523.75, 1240.58 523.87, 1241.55 523.12 C 1242.53 522.38, 1243.26 521.64, 1244.21 519.23 C 1245.16 516.81, 1245.30 514.93, 1246.31 511.06 C 1247.31 507.20, 1247.82 504.59, 1249.24 499.91 C 1250.65 495.23, 1251.55 492.34, 1253.37 487.67 C 1255.20 483.00, 1256.31 480.44, 1258.37 476.55 C 1260.42 472.65, 1261.67 470.84, 1263.67 468.18 C 1265.67 465.51, 1266.74 464.57, 1268.38 463.22 C 1270.03 461.86, 1270.72 461.51, 1271.90 461.40 C 1273.07 461.29, 1273.41 461.45, 1274.25 462.67 C 1275.09 463.90, 1275.31 464.86, 1276.11 467.51 C 1276.90 470.17, 1277.53 471.98, 1278.22 475.94 C 1278.92 479.90, 1279.20 482.50, 1279.57 487.32 C 1279.94 492.14, 1279.97 495.06, 1280.07 500.04 C 1280.16 505.03, 1280.08 507.79, 1280.03 512.25 C 1279.99 516.70, 1279.84 518.89, 1279.84 522.32 C 1279.83 525.75, 1279.71 527.23, 1280.02 529.41 C 1280.33 531.59, 1280.62 532.37, 1281.39 533.22 C 1282.17 534.08, 1282.77 534.38, 1283.89 533.69 C 1285.01 533.00, 1285.97 531.87, 1287.00 529.77 C 1288.03 527.66, 1288.63 525.74, 1289.04 523.17 C 1289.45 520.60, 1289.40 518.25, 1289.05 516.91 C 1288.70 515.58, 1288.22 515.47, 1287.30 516.49 C 1286.38 517.50, 1285.33 519.59, 1284.45 521.97 C 1283.57 524.35, 1283.31 526.26, 1282.91 528.38 C 1282.51 530.51, 1282.51 531.75, 1282.46 532.60 C 1282.41 533.45, 1282.60 533.31, 1282.64 532.63 C 1282.69 531.95, 1282.72 531.26, 1282.68 529.19 C 1282.64 527.12, 1282.53 525.68, 1282.45 522.29 C 1282.37 518.90, 1282.31 516.70, 1282.26 512.25 C 1282.22 507.79, 1282.29 505.02, 1282.22 500.01 C 1282.15 494.99, 1282.15 492.06, 1281.90 487.17 C 1281.66 482.27, 1281.50 479.68, 1281.00 475.53 C 1280.50 471.39, 1280.38 469.37, 1279.41 466.46 C 1278.44 463.56, 1277.65 462.43, 1276.12 461.00 C 1274.60 459.57, 1273.67 459.30, 1271.80 459.33 C 1269.94 459.36, 1268.82 459.67, 1266.79 461.14 C 1264.76 462.61, 1263.71 463.80, 1261.63 466.67 C 1259.55 469.55, 1258.46 471.49, 1256.40 475.53 C 1254.35 479.57, 1253.26 482.14, 1251.36 486.87 C 1249.47 491.60, 1248.55 494.50, 1246.94 499.16 C 1245.33 503.82, 1244.56 506.39, 1243.30 510.17 C 1242.04 513.95, 1241.27 515.63, 1240.63 518.05 C 1239.99 520.47, 1240.12 521.35, 1240.11 522.25 C 1240.09 523.16, 1240.35 523.18, 1240.55 522.55 C 1240.75 521.92, 1240.91 521.18, 1241.10 519.10 C 1241.29 517.03, 1241.28 515.47, 1241.49 512.18 C 1241.70 508.90, 1241.83 506.75, 1242.14 502.67 C 1242.45 498.60, 1242.67 496.19, 1243.03 491.82 C 1243.39 487.46, 1243.61 485.01, 1243.93 480.83 C 1244.24 476.65, 1244.37 474.48, 1244.59 470.94 C 1244.81 467.39, 1245.05 465.70, 1245.01 463.12 C 1244.98 460.55, 1244.73 459.58, 1244.42 458.06 C 1244.10 456.54, 1243.89 456.01, 1243.44 455.52 C 1242.99 455.04, 1242.53 455.09, 1242.15 455.62" style="stroke: black; fill: black;"/><path d="M 1311.45,411.64 C 1311.05 412.16, 1310.88 412.53, 1310.62 414.23 C 1310.37 415.94, 1310.19 417.01, 1310.18 420.16 C 1310.16 423.32, 1310.50 425.41, 1310.57 430.02 C 1310.64 434.62, 1310.63 437.49, 1310.54 443.20 C 1310.44 448.91, 1310.30 452.24, 1310.07 458.54 C 1309.85 464.84, 1309.68 468.33, 1309.41 474.71 C 1309.15 481.10, 1308.97 484.47, 1308.74 490.47 C 1308.51 496.46, 1308.39 499.51, 1308.26 504.70 C 1308.12 509.89, 1308.09 512.37, 1308.08 516.40 C 1308.07 520.43, 1307.99 522.21, 1308.22 524.86 C 1308.45 527.51, 1308.82 528.33, 1309.24 529.65 C 1309.66 530.97, 1309.86 531.12, 1310.31 531.47 C 1310.76 531.83, 1311.16 531.65, 1311.49 531.41 C 1311.82 531.18, 1312.20 530.54, 1311.96 530.29 C 1311.72 530.04, 1310.56 529.99, 1310.29 530.16 C 1310.01 530.33, 1310.40 530.94, 1310.59 531.12 C 1310.79 531.30, 1311.12 531.44, 1311.26 531.07 C 1311.40 530.70, 1311.37 530.56, 1311.31 529.27 C 1311.25 527.98, 1311.16 527.21, 1310.95 524.63 C 1310.74 522.04, 1310.44 520.34, 1310.27 516.36 C 1310.09 512.38, 1310.04 509.89, 1310.06 504.73 C 1310.08 499.56, 1310.18 496.51, 1310.37 490.52 C 1310.56 484.53, 1310.73 481.16, 1311.01 474.78 C 1311.29 468.40, 1311.47 464.92, 1311.77 458.61 C 1312.07 452.31, 1312.24 448.97, 1312.51 443.26 C 1312.78 437.55, 1312.88 434.67, 1313.12 430.06 C 1313.35 425.45, 1313.62 423.36, 1313.68 420.20 C 1313.73 417.04, 1313.61 415.98, 1313.40 414.27 C 1313.20 412.56, 1313.04 412.19, 1312.65 411.66 C 1312.26 411.14, 1311.86 411.13, 1311.45 411.64" style="stroke: black; fill: black;"/><path d="M 1294.50,480.59 C 1294.79 481.00, 1295.03 481.17, 1295.97 481.43 C 1296.91 481.69, 1297.56 481.86, 1299.21 481.87 C 1300.87 481.89, 1301.95 481.80, 1304.24 481.51 C 1306.53 481.22, 1307.96 481.02, 1310.66 480.43 C 1313.37 479.84, 1314.86 479.41, 1317.76 478.57 C 1320.66 477.74, 1322.22 477.25, 1325.15 476.24 C 1328.08 475.24, 1329.60 474.71, 1332.42 473.54 C 1335.24 472.36, 1336.68 471.77, 1339.25 470.39 C 1341.82 469.00, 1343.12 468.25, 1345.28 466.63 C 1347.44 465.02, 1348.45 464.12, 1350.05 462.31 C 1351.65 460.51, 1352.34 459.52, 1353.27 457.61 C 1354.21 455.70, 1354.56 454.64, 1354.74 452.78 C 1354.93 450.92, 1354.81 449.85, 1354.20 448.31 C 1353.59 446.78, 1353.01 445.96, 1351.71 445.09 C 1350.40 444.22, 1349.46 443.85, 1347.68 443.95 C 1345.90 444.06, 1344.77 444.29, 1342.81 445.61 C 1340.84 446.94, 1339.66 447.95, 1337.84 450.60 C 1336.01 453.24, 1335.17 455.05, 1333.67 458.83 C 1332.17 462.62, 1331.44 464.94, 1330.33 469.53 C 1329.22 474.12, 1328.71 476.84, 1328.12 481.78 C 1327.52 486.71, 1327.33 489.46, 1327.34 494.21 C 1327.35 498.95, 1327.54 501.40, 1328.15 505.51 C 1328.76 509.63, 1329.20 511.59, 1330.39 514.79 C 1331.58 518.00, 1332.34 519.44, 1334.11 521.53 C 1335.87 523.62, 1337.04 524.38, 1339.21 525.26 C 1341.38 526.14, 1342.63 526.28, 1344.97 525.94 C 1347.31 525.59, 1348.63 525.17, 1350.92 523.55 C 1353.22 521.92, 1354.34 520.66, 1356.43 517.81 C 1358.52 514.97, 1359.46 513.17, 1361.37 509.34 C 1363.27 505.51, 1364.19 503.14, 1365.94 498.66 C 1367.69 494.17, 1368.53 491.52, 1370.10 486.92 C 1371.67 482.32, 1372.42 479.78, 1373.78 475.66 C 1375.13 471.54, 1375.86 469.51, 1376.87 466.33 C 1377.89 463.16, 1378.40 461.62, 1378.85 459.79 C 1379.29 457.95, 1379.18 457.27, 1379.09 457.16 C 1379.01 457.04, 1378.58 457.47, 1378.42 459.22 C 1378.26 460.96, 1378.26 462.46, 1378.29 465.90 C 1378.33 469.33, 1378.56 471.79, 1378.59 476.40 C 1378.61 481.01, 1378.54 483.96, 1378.41 488.95 C 1378.29 493.94, 1378.17 496.77, 1377.95 501.36 C 1377.74 505.94, 1377.55 508.27, 1377.35 511.87 C 1377.15 515.47, 1376.89 517.10, 1376.96 519.35 C 1377.03 521.59, 1377.28 522.37, 1377.70 523.08 C 1378.12 523.79, 1378.55 523.79, 1379.05 522.89 C 1379.54 522.00, 1379.96 521.06, 1380.17 518.61 C 1380.39 516.16, 1380.05 514.38, 1380.11 510.67 C 1380.17 506.96, 1380.12 504.48, 1380.48 500.06 C 1380.83 495.65, 1381.15 493.01, 1381.89 488.59 C 1382.62 484.17, 1383.13 481.81, 1384.17 477.96 C 1385.22 474.11, 1385.86 472.32, 1387.09 469.33 C 1388.33 466.34, 1389.03 465.13, 1390.33 463.01 C 1391.63 460.89, 1392.25 460.06, 1393.60 458.72 C 1394.94 457.39, 1395.61 457.00, 1397.04 456.34 C 1398.47 455.69, 1399.21 455.63, 1400.75 455.47 C 1402.30 455.31, 1403.10 455.43, 1404.78 455.54 C 1406.46 455.65, 1407.34 455.86, 1409.14 456.01 C 1410.95 456.17, 1411.93 456.30, 1413.82 456.32 C 1415.70 456.33, 1416.66 456.33, 1418.58 456.08 C 1420.49 455.82, 1421.50 455.64, 1423.38 455.02 C 1425.27 454.41, 1426.25 454.02, 1428.00 453.01 C 1429.75 452.00, 1430.66 451.36, 1432.14 449.96 C 1433.62 448.57, 1434.35 447.71, 1435.39 446.03 C 1436.43 444.35, 1436.89 443.34, 1437.33 441.58 C 1437.77 439.81, 1437.88 438.79, 1437.59 437.20 C 1437.30 435.61, 1436.92 434.70, 1435.86 433.64 C 1434.81 432.58, 1433.96 432.06, 1432.30 431.92 C 1430.63 431.79, 1429.55 431.91, 1427.56 432.96 C 1425.57 434.01, 1424.39 434.82, 1422.36 437.19 C 1420.33 439.56, 1419.34 441.22, 1417.42 444.81 C 1415.50 448.41, 1414.45 450.63, 1412.76 455.18 C 1411.06 459.72, 1410.19 462.44, 1408.95 467.53 C 1407.70 472.63, 1407.13 475.60, 1406.53 480.67 C 1405.93 485.74, 1405.81 488.40, 1405.95 492.89 C 1406.10 497.38, 1406.37 499.53, 1407.25 503.10 C 1408.14 506.66, 1408.75 508.29, 1410.37 510.72 C 1412.00 513.15, 1413.15 514.06, 1415.39 515.27 C 1417.63 516.48, 1418.96 516.79, 1421.56 516.77 C 1424.17 516.75, 1425.65 516.48, 1428.40 515.18 C 1431.14 513.89, 1432.54 512.82, 1435.29 510.29 C 1438.04 507.77, 1439.47 506.15, 1442.16 502.58 C 1444.85 499.00, 1446.23 496.80, 1448.74 492.42 C 1451.25 488.03, 1452.47 485.45, 1454.69 480.67 C 1456.92 475.90, 1457.96 473.19, 1459.86 468.54 C 1461.77 463.90, 1462.63 461.48, 1464.21 457.45 C 1465.79 453.41, 1466.51 451.49, 1467.75 448.37 C 1468.99 445.25, 1469.56 443.96, 1470.41 441.87 C 1471.27 439.77, 1471.56 438.99, 1472.03 437.89 C 1472.51 436.79, 1472.59 436.53, 1472.78 436.38 C 1472.97 436.23, 1472.85 436.38, 1472.99 437.14 C 1473.13 437.90, 1473.16 438.48, 1473.50 440.19 C 1473.83 441.89, 1474.07 443.04, 1474.65 445.66 C 1475.24 448.28, 1475.81 449.90, 1476.43 453.30 C 1477.05 456.69, 1477.34 458.73, 1477.73 462.64 C 1478.12 466.55, 1478.29 468.75, 1478.40 472.85 C 1478.50 476.95, 1478.50 479.14, 1478.25 483.15 C 1478.00 487.15, 1477.78 489.21, 1477.16 492.89 C 1476.54 496.57, 1476.12 498.41, 1475.16 501.54 C 1474.20 504.68, 1473.52 506.12, 1472.34 508.57 C 1471.17 511.02, 1470.54 512.12, 1469.29 513.79 C 1468.05 515.47, 1467.34 516.11, 1466.12 516.96 C 1464.89 517.82, 1464.27 518.01, 1463.16 518.06 C 1462.05 518.12, 1461.54 517.93, 1460.56 517.24 C 1459.59 516.54, 1459.10 516.02, 1458.29 514.58 C 1457.49 513.14, 1457.08 512.22, 1456.53 510.02 C 1455.98 507.83, 1455.72 506.45, 1455.54 503.61 C 1455.35 500.77, 1455.31 499.06, 1455.60 495.84 C 1455.88 492.62, 1456.18 490.84, 1456.94 487.50 C 1457.71 484.17, 1458.25 482.39, 1459.42 479.16 C 1460.59 475.92, 1461.29 474.39, 1462.80 471.31 C 1464.32 468.24, 1465.18 466.75, 1466.98 463.76 C 1468.79 460.77, 1469.80 459.32, 1471.82 456.37 C 1473.85 453.42, 1474.97 451.97, 1477.13 449.01 C 1479.29 446.06, 1480.44 444.56, 1482.65 441.59 C 1484.85 438.62, 1486.01 437.11, 1488.14 434.16 C 1490.28 431.22, 1491.35 429.74, 1493.31 426.86 C 1495.28 423.99, 1496.23 422.53, 1497.96 419.78 C 1499.70 417.04, 1500.56 415.67, 1501.99 413.12 C 1503.41 410.58, 1504.04 409.30, 1505.10 407.05 C 1506.16 404.80, 1506.61 403.69, 1507.30 401.85 C 1507.98 400.01, 1508.34 399.14, 1508.52 397.86 C 1508.70 396.57, 1508.59 395.94, 1508.20 395.43 C 1507.82 394.91, 1507.23 394.67, 1506.60 395.28 C 1505.97 395.89, 1505.46 396.48, 1505.05 398.48 C 1504.64 400.49, 1504.66 401.91, 1504.54 405.30 C 1504.42 408.70, 1504.56 410.85, 1504.45 415.44 C 1504.33 420.03, 1504.19 422.77, 1503.96 428.26 C 1503.72 433.75, 1503.55 436.89, 1503.27 442.89 C 1502.98 448.89, 1502.81 452.16, 1502.53 458.26 C 1502.25 464.36, 1502.10 467.58, 1501.88 473.40 C 1501.65 479.22, 1501.56 482.19, 1501.40 487.37 C 1501.25 492.54, 1501.21 495.04, 1501.11 499.27 C 1501.01 503.50, 1500.90 505.42, 1500.90 508.51 C 1500.91 511.60, 1500.97 512.89, 1501.13 514.72 C 1501.29 516.54, 1501.43 516.95, 1501.70 517.63 C 1501.97 518.31, 1502.26 518.18, 1502.46 518.11 C 1502.66 518.04, 1502.85 517.41, 1502.71 517.28 C 1502.56 517.15, 1501.82 517.26, 1501.74 517.45 C 1501.65 517.65, 1501.99 518.22, 1502.28 518.26 C 1502.58 518.30, 1502.93 518.36, 1503.21 517.64 C 1503.49 516.93, 1503.59 516.50, 1503.67 514.66 C 1503.75 512.83, 1503.69 511.55, 1503.61 508.47 C 1503.52 505.39, 1503.31 503.49, 1503.23 499.27 C 1503.16 495.06, 1503.16 492.57, 1503.23 487.40 C 1503.29 482.24, 1503.37 479.27, 1503.56 473.46 C 1503.75 467.65, 1503.90 464.43, 1504.19 458.34 C 1504.48 452.24, 1504.67 448.97, 1505.02 442.98 C 1505.38 436.99, 1505.57 433.85, 1505.96 428.37 C 1506.34 422.89, 1506.52 420.15, 1506.96 415.59 C 1507.39 411.03, 1507.76 408.91, 1508.14 405.57 C 1508.51 402.23, 1508.80 400.90, 1508.84 398.91 C 1508.88 396.93, 1508.69 396.37, 1508.34 395.64 C 1507.99 394.91, 1507.60 394.98, 1507.09 395.26 C 1506.58 395.53, 1506.35 395.95, 1505.81 397.03 C 1505.27 398.12, 1505.12 398.97, 1504.39 400.70 C 1503.66 402.42, 1503.22 403.48, 1502.18 405.66 C 1501.14 407.84, 1500.51 409.06, 1499.17 411.58 C 1497.83 414.10, 1497.10 415.51, 1495.47 418.26 C 1493.84 421.01, 1492.93 422.46, 1491.03 425.33 C 1489.13 428.20, 1488.08 429.67, 1485.98 432.60 C 1483.88 435.54, 1482.72 437.05, 1480.53 440.02 C 1478.33 442.99, 1477.18 444.48, 1475.00 447.45 C 1472.82 450.41, 1471.69 451.86, 1469.62 454.85 C 1467.56 457.83, 1466.53 459.32, 1464.67 462.37 C 1462.82 465.42, 1461.93 466.94, 1460.36 470.11 C 1458.78 473.27, 1458.05 474.85, 1456.80 478.19 C 1455.56 481.54, 1454.98 483.36, 1454.11 486.82 C 1453.24 490.28, 1452.89 492.11, 1452.45 495.50 C 1452.02 498.89, 1451.84 500.69, 1451.93 503.78 C 1452.03 506.88, 1452.24 508.46, 1452.94 510.98 C 1453.64 513.50, 1454.22 514.65, 1455.44 516.40 C 1456.66 518.14, 1457.48 518.85, 1459.05 519.71 C 1460.62 520.57, 1461.58 520.78, 1463.29 520.69 C 1465.01 520.61, 1465.95 520.31, 1467.62 519.30 C 1469.29 518.28, 1470.15 517.51, 1471.66 515.63 C 1473.17 513.75, 1473.96 512.57, 1475.19 509.91 C 1476.41 507.24, 1476.91 505.62, 1477.80 502.30 C 1478.69 498.98, 1479.07 497.09, 1479.65 493.29 C 1480.22 489.49, 1480.43 487.39, 1480.68 483.29 C 1480.93 479.20, 1480.93 476.98, 1480.88 472.81 C 1480.84 468.63, 1480.69 466.41, 1480.44 462.42 C 1480.19 458.43, 1479.98 456.37, 1479.63 452.85 C 1479.29 449.33, 1479.24 447.59, 1478.73 444.83 C 1478.22 442.07, 1477.85 440.87, 1477.08 439.06 C 1476.32 437.26, 1475.84 436.62, 1474.90 435.82 C 1473.97 435.02, 1473.36 434.90, 1472.41 435.07 C 1471.45 435.25, 1471.03 435.57, 1470.12 436.71 C 1469.21 437.85, 1468.80 438.62, 1467.85 440.77 C 1466.89 442.92, 1466.47 444.28, 1465.34 447.46 C 1464.20 450.64, 1463.64 452.62, 1462.17 456.68 C 1460.71 460.75, 1459.87 463.16, 1458.01 467.79 C 1456.15 472.42, 1455.11 475.11, 1452.89 479.83 C 1450.67 484.54, 1449.43 487.09, 1446.90 491.35 C 1444.38 495.60, 1442.95 497.73, 1440.25 501.10 C 1437.56 504.46, 1436.07 505.93, 1433.41 508.16 C 1430.76 510.38, 1429.37 511.06, 1426.98 512.20 C 1424.59 513.33, 1423.53 513.69, 1421.46 513.83 C 1419.40 513.97, 1418.42 513.83, 1416.66 512.90 C 1414.91 511.96, 1414.10 511.24, 1412.69 509.16 C 1411.28 507.08, 1410.52 505.75, 1409.60 502.48 C 1408.68 499.21, 1408.30 497.12, 1408.09 492.80 C 1407.88 488.49, 1407.97 485.86, 1408.54 480.90 C 1409.11 475.95, 1409.68 473.01, 1410.95 468.03 C 1412.22 463.06, 1413.12 460.38, 1414.90 456.01 C 1416.68 451.65, 1417.81 449.49, 1419.84 446.20 C 1421.88 442.92, 1423.19 441.66, 1425.08 439.60 C 1426.97 437.54, 1427.87 436.87, 1429.31 435.90 C 1430.74 434.92, 1431.32 434.79, 1432.25 434.70 C 1433.17 434.61, 1433.47 434.87, 1433.94 435.44 C 1434.41 436.02, 1434.55 436.53, 1434.59 437.58 C 1434.63 438.62, 1434.55 439.36, 1434.13 440.68 C 1433.70 442.01, 1433.35 442.84, 1432.47 444.19 C 1431.60 445.55, 1431.01 446.28, 1429.77 447.44 C 1428.52 448.61, 1427.76 449.16, 1426.27 450.03 C 1424.78 450.89, 1423.95 451.24, 1422.32 451.78 C 1420.69 452.31, 1419.83 452.48, 1418.13 452.70 C 1416.44 452.92, 1415.60 452.90, 1413.86 452.86 C 1412.12 452.83, 1411.22 452.68, 1409.43 452.54 C 1407.64 452.40, 1406.74 452.20, 1404.91 452.18 C 1403.09 452.15, 1402.14 452.08, 1400.32 452.40 C 1398.50 452.72, 1397.55 452.91, 1395.81 453.77 C 1394.08 454.63, 1393.23 455.17, 1391.63 456.71 C 1390.03 458.26, 1389.23 459.16, 1387.83 461.49 C 1386.43 463.82, 1385.81 465.18, 1384.62 468.35 C 1383.42 471.53, 1382.87 473.39, 1381.85 477.35 C 1380.84 481.32, 1380.35 483.70, 1379.55 488.19 C 1378.76 492.68, 1378.44 495.33, 1377.87 499.79 C 1377.30 504.25, 1377.01 506.74, 1376.68 510.49 C 1376.36 514.24, 1376.11 516.07, 1376.26 518.56 C 1376.41 521.04, 1376.90 522.00, 1377.42 522.91 C 1377.93 523.83, 1378.38 523.81, 1378.84 523.12 C 1379.31 522.42, 1379.53 521.67, 1379.74 519.44 C 1379.95 517.21, 1379.82 515.57, 1379.91 511.97 C 1380.00 508.37, 1380.03 506.03, 1380.19 501.44 C 1380.34 496.86, 1380.46 494.02, 1380.68 489.02 C 1380.89 484.03, 1381.06 481.08, 1381.26 476.45 C 1381.47 471.82, 1381.75 469.36, 1381.70 465.86 C 1381.66 462.36, 1381.58 460.80, 1381.04 458.94 C 1380.50 457.08, 1379.91 456.56, 1379.01 456.55 C 1378.11 456.55, 1377.50 457.11, 1376.55 458.91 C 1375.60 460.70, 1375.26 462.30, 1374.27 465.52 C 1373.28 468.73, 1372.85 470.83, 1371.60 474.97 C 1370.36 479.12, 1369.60 481.65, 1368.05 486.22 C 1366.49 490.79, 1365.63 493.43, 1363.83 497.82 C 1362.04 502.21, 1361.05 504.53, 1359.09 508.16 C 1357.12 511.79, 1356.03 513.43, 1354.01 515.97 C 1351.99 518.51, 1350.88 519.43, 1348.97 520.86 C 1347.06 522.30, 1346.22 522.74, 1344.47 523.13 C 1342.72 523.52, 1341.86 523.47, 1340.22 522.79 C 1338.58 522.11, 1337.75 521.51, 1336.27 519.73 C 1334.79 517.94, 1334.01 516.76, 1332.83 513.85 C 1331.66 510.93, 1331.08 509.08, 1330.41 505.15 C 1329.74 501.22, 1329.51 498.82, 1329.47 494.20 C 1329.44 489.57, 1329.62 486.86, 1330.25 482.04 C 1330.88 477.23, 1331.40 474.53, 1332.60 470.11 C 1333.79 465.69, 1334.60 463.42, 1336.23 459.93 C 1337.85 456.44, 1338.98 454.96, 1340.70 452.66 C 1342.43 450.36, 1343.38 449.59, 1344.84 448.42 C 1346.31 447.26, 1346.95 447.07, 1348.01 446.85 C 1349.08 446.63, 1349.49 446.83, 1350.18 447.32 C 1350.87 447.81, 1351.16 448.27, 1351.47 449.29 C 1351.78 450.31, 1351.91 451.04, 1351.72 452.43 C 1351.53 453.81, 1351.31 454.66, 1350.50 456.20 C 1349.69 457.75, 1349.11 458.61, 1347.67 460.16 C 1346.23 461.71, 1345.31 462.50, 1343.31 463.96 C 1341.31 465.41, 1340.09 466.11, 1337.66 467.43 C 1335.23 468.74, 1333.88 469.39, 1331.17 470.53 C 1328.46 471.66, 1326.97 472.19, 1324.11 473.11 C 1321.24 474.03, 1319.69 474.46, 1316.85 475.15 C 1314.01 475.83, 1312.54 476.09, 1309.91 476.54 C 1307.28 476.98, 1305.92 477.09, 1303.72 477.36 C 1301.52 477.63, 1300.49 477.66, 1298.93 477.90 C 1297.37 478.14, 1296.80 478.28, 1295.91 478.57 C 1295.03 478.86, 1294.80 478.96, 1294.52 479.36 C 1294.23 479.76, 1294.21 480.17, 1294.50 480.59" style="stroke: black; fill: black;"/><path d="M 1485.95,464.44 C 1486.26 464.90, 1486.55 465.18, 1487.66 465.54 C 1488.78 465.91, 1489.58 466.13, 1491.51 466.27 C 1493.45 466.41, 1494.73 466.43, 1497.32 466.24 C 1499.92 466.05, 1501.55 465.80, 1504.51 465.30 C 1507.47 464.81, 1509.32 464.42, 1512.14 463.76 C 1514.96 463.11, 1516.47 462.70, 1518.60 462.02 C 1520.73 461.34, 1521.51 460.94, 1522.79 460.36 C 1524.06 459.77, 1524.58 459.53, 1524.97 459.10 C 1525.36 458.67, 1525.28 458.39, 1524.73 458.21 C 1524.18 458.03, 1523.61 458.10, 1522.23 458.21 C 1520.84 458.32, 1519.98 458.39, 1517.81 458.76 C 1515.63 459.13, 1514.12 459.51, 1511.35 460.05 C 1508.57 460.59, 1506.78 461.06, 1503.92 461.46 C 1501.06 461.86, 1499.51 461.90, 1497.04 462.05 C 1494.56 462.21, 1493.37 462.13, 1491.54 462.25 C 1489.71 462.37, 1488.97 462.45, 1487.89 462.64 C 1486.81 462.83, 1486.53 462.86, 1486.14 463.22 C 1485.75 463.58, 1485.65 463.97, 1485.95 464.44" style="stroke: black; fill: black;"/><path d="M 1561.96,396.95 C 1561.57 397.44, 1561.55 397.85, 1561.25 399.34 C 1560.95 400.83, 1560.64 401.74, 1560.46 404.41 C 1560.27 407.09, 1560.49 408.90, 1560.34 412.72 C 1560.18 416.53, 1560.01 418.89, 1559.66 423.48 C 1559.32 428.07, 1559.03 430.74, 1558.61 435.67 C 1558.19 440.60, 1557.94 443.26, 1557.57 448.11 C 1557.20 452.96, 1557.03 455.43, 1556.77 459.90 C 1556.50 464.38, 1556.39 466.53, 1556.25 470.48 C 1556.10 474.44, 1556.08 476.30, 1556.04 479.66 C 1555.99 483.01, 1555.96 484.54, 1556.01 487.26 C 1556.07 489.97, 1556.11 491.17, 1556.33 493.25 C 1556.54 495.33, 1556.76 496.29, 1557.07 497.64 C 1557.38 498.99, 1557.51 499.54, 1557.86 500.00 C 1558.21 500.46, 1558.53 500.45, 1558.83 499.95 C 1559.13 499.44, 1559.26 498.84, 1559.36 497.47 C 1559.46 496.09, 1559.38 495.12, 1559.33 493.06 C 1559.27 491.00, 1559.21 489.84, 1559.08 487.15 C 1558.96 484.47, 1558.80 482.96, 1558.70 479.63 C 1558.59 476.31, 1558.53 474.46, 1558.57 470.54 C 1558.61 466.62, 1558.68 464.47, 1558.89 460.01 C 1559.11 455.56, 1559.26 453.10, 1559.63 448.27 C 1560.00 443.44, 1560.26 440.78, 1560.75 435.87 C 1561.25 430.96, 1561.57 428.29, 1562.10 423.71 C 1562.62 419.13, 1562.94 416.78, 1563.40 412.97 C 1563.86 409.15, 1564.27 407.36, 1564.40 404.65 C 1564.54 401.93, 1564.32 400.94, 1564.08 399.39 C 1563.84 397.85, 1563.63 397.39, 1563.20 396.91 C 1562.78 396.42, 1562.35 396.46, 1561.96 396.95" style="stroke: black; fill: black;"/><path d="M 1557.93,490.21 C 1558.44 490.01, 1558.80 489.65, 1558.85 489.19 C 1558.90 488.74, 1558.67 488.24, 1558.17 487.95 C 1557.68 487.66, 1556.92 487.53, 1556.36 487.73 C 1555.81 487.93, 1555.40 488.46, 1555.39 488.95 C 1555.37 489.44, 1555.77 489.93, 1556.28 490.18 C 1556.78 490.44, 1557.41 490.41, 1557.93 490.21" style="stroke: black; fill: black;"/></svg>